<?xml version="1.0" encoding="utf-8" standalone="no"?>
<!DOCTYPE svg PUBLIC "-//W3C//DTD SVG 1.1//EN"
  "http://www.w3.org/Graphics/SVG/1.1/DTD/svg11.dtd">
<svg xmlns:xlink="http://www.w3.org/1999/xlink" width="710.147051pt" height="313.002312pt" viewBox="0 0 710.147051 313.002312" xmlns="http://www.w3.org/2000/svg" version="1.1">
 <metadata>
  <rdf:RDF xmlns:dc="http://purl.org/dc/elements/1.1/" xmlns:cc="http://creativecommons.org/ns#" xmlns:rdf="http://www.w3.org/1999/02/22-rdf-syntax-ns#">
   <cc:Work>
    <dc:type rdf:resource="http://purl.org/dc/dcmitype/StillImage"/>
    <dc:date>2026-07-20T19:37:09.520117</dc:date>
    <dc:format>image/svg+xml</dc:format>
    <dc:creator>
     <cc:Agent>
      <dc:title>Matplotlib v3.10.9, https://matplotlib.org/</dc:title>
     </cc:Agent>
    </dc:creator>
   </cc:Work>
  </rdf:RDF>
 </metadata>
 <defs>
  <style type="text/css">*{stroke-linejoin: round; stroke-linecap: butt}</style>
 </defs>
 <g id="figure_1">
  <g id="patch_1">
   <path d="M 0 313.002312 
L 710.147051 313.002312 
L 710.147051 0 
L 0 0 
z
" style="fill: #ffffff"/>
  </g>
  <g id="axes_1">
   <g id="patch_2">
    <path d="M 40.603125 275.992 
L 363.482051 275.992 
L 363.482051 83.76 
L 40.603125 83.76 
z
" style="fill: #ffffff"/>
   </g>
   <g id="matplotlib.axis_1">
    <g id="xtick_1">
     <g id="line2d_1">
      <path d="M 55.27944 275.992 
L 55.27944 83.76 
" clip-path="url(#p35bc0362d7)" style="fill: none; stroke: #b0b0b0; stroke-opacity: 0.25; stroke-width: 0.8; stroke-linecap: square"/>
     </g>
     <g id="line2d_2">
      <defs>
       <path id="md9f5f2eb2e" d="M 0 0 
L 0 3.5 
" style="stroke: #000000; stroke-width: 0.8"/>
      </defs>
      <g>
       <use xlink:href="#md9f5f2eb2e" x="55.27944" y="275.992" style="stroke: #000000; stroke-width: 0.8"/>
      </g>
     </g>
     <g id="text_1">
      <!-- &lt;0.05 -->
      <g transform="translate(41.489049 289.830594) scale(0.09 -0.09)">
       <defs>
        <path id="DejaVuSans-3c" d="M 4684 3150 
L 1459 2003 
L 4684 863 
L 4684 294 
L 678 1747 
L 678 2266 
L 4684 3719 
L 4684 3150 
z
" transform="scale(0.015625)"/>
        <path id="DejaVuSans-30" d="M 2034 4250 
Q 1547 4250 1301 3770 
Q 1056 3291 1056 2328 
Q 1056 1369 1301 889 
Q 1547 409 2034 409 
Q 2525 409 2770 889 
Q 3016 1369 3016 2328 
Q 3016 3291 2770 3770 
Q 2525 4250 2034 4250 
z
M 2034 4750 
Q 2819 4750 3233 4129 
Q 3647 3509 3647 2328 
Q 3647 1150 3233 529 
Q 2819 -91 2034 -91 
Q 1250 -91 836 529 
Q 422 1150 422 2328 
Q 422 3509 836 4129 
Q 1250 4750 2034 4750 
z
" transform="scale(0.015625)"/>
        <path id="DejaVuSans-2e" d="M 684 794 
L 1344 794 
L 1344 0 
L 684 0 
L 684 794 
z
" transform="scale(0.015625)"/>
        <path id="DejaVuSans-35" d="M 691 4666 
L 3169 4666 
L 3169 4134 
L 1269 4134 
L 1269 2991 
Q 1406 3038 1543 3061 
Q 1681 3084 1819 3084 
Q 2600 3084 3056 2656 
Q 3513 2228 3513 1497 
Q 3513 744 3044 326 
Q 2575 -91 1722 -91 
Q 1428 -91 1123 -41 
Q 819 9 494 109 
L 494 744 
Q 775 591 1075 516 
Q 1375 441 1709 441 
Q 2250 441 2565 725 
Q 2881 1009 2881 1497 
Q 2881 1984 2565 2268 
Q 2250 2553 1709 2553 
Q 1456 2553 1204 2497 
Q 953 2441 691 2322 
L 691 4666 
z
" transform="scale(0.015625)"/>
       </defs>
       <use xlink:href="#DejaVuSans-3c"/>
       <use xlink:href="#DejaVuSans-30" transform="translate(83.789062 0)"/>
       <use xlink:href="#DejaVuSans-2e" transform="translate(147.412109 0)"/>
       <use xlink:href="#DejaVuSans-30" transform="translate(179.199219 0)"/>
       <use xlink:href="#DejaVuSans-35" transform="translate(242.822266 0)"/>
      </g>
     </g>
    </g>
    <g id="xtick_2">
     <g id="line2d_3">
      <path d="M 153.121538 275.992 
L 153.121538 83.76 
" clip-path="url(#p35bc0362d7)" style="fill: none; stroke: #b0b0b0; stroke-opacity: 0.25; stroke-width: 0.8; stroke-linecap: square"/>
     </g>
     <g id="line2d_4">
      <g>
       <use xlink:href="#md9f5f2eb2e" x="153.121538" y="275.992" style="stroke: #000000; stroke-width: 0.8"/>
      </g>
     </g>
     <g id="text_2">
      <!-- 0.05-0.10 -->
      <g transform="translate(131.45896 289.830594) scale(0.09 -0.09)">
       <defs>
        <path id="DejaVuSans-2d" d="M 313 2009 
L 1997 2009 
L 1997 1497 
L 313 1497 
L 313 2009 
z
" transform="scale(0.015625)"/>
        <path id="DejaVuSans-31" d="M 794 531 
L 1825 531 
L 1825 4091 
L 703 3866 
L 703 4441 
L 1819 4666 
L 2450 4666 
L 2450 531 
L 3481 531 
L 3481 0 
L 794 0 
L 794 531 
z
" transform="scale(0.015625)"/>
       </defs>
       <use xlink:href="#DejaVuSans-30"/>
       <use xlink:href="#DejaVuSans-2e" transform="translate(63.623047 0)"/>
       <use xlink:href="#DejaVuSans-30" transform="translate(95.410156 0)"/>
       <use xlink:href="#DejaVuSans-35" transform="translate(159.033203 0)"/>
       <use xlink:href="#DejaVuSans-2d" transform="translate(222.65625 0)"/>
       <use xlink:href="#DejaVuSans-30" transform="translate(258.740234 0)"/>
       <use xlink:href="#DejaVuSans-2e" transform="translate(322.363281 0)"/>
       <use xlink:href="#DejaVuSans-31" transform="translate(354.150391 0)"/>
       <use xlink:href="#DejaVuSans-30" transform="translate(417.773438 0)"/>
      </g>
     </g>
    </g>
    <g id="xtick_3">
     <g id="line2d_5">
      <path d="M 250.963637 275.992 
L 250.963637 83.76 
" clip-path="url(#p35bc0362d7)" style="fill: none; stroke: #b0b0b0; stroke-opacity: 0.25; stroke-width: 0.8; stroke-linecap: square"/>
     </g>
     <g id="line2d_6">
      <g>
       <use xlink:href="#md9f5f2eb2e" x="250.963637" y="275.992" style="stroke: #000000; stroke-width: 0.8"/>
      </g>
     </g>
     <g id="text_3">
      <!-- 0.10-0.20 -->
      <g transform="translate(229.301059 289.830594) scale(0.09 -0.09)">
       <defs>
        <path id="DejaVuSans-32" d="M 1228 531 
L 3431 531 
L 3431 0 
L 469 0 
L 469 531 
Q 828 903 1448 1529 
Q 2069 2156 2228 2338 
Q 2531 2678 2651 2914 
Q 2772 3150 2772 3378 
Q 2772 3750 2511 3984 
Q 2250 4219 1831 4219 
Q 1534 4219 1204 4116 
Q 875 4013 500 3803 
L 500 4441 
Q 881 4594 1212 4672 
Q 1544 4750 1819 4750 
Q 2544 4750 2975 4387 
Q 3406 4025 3406 3419 
Q 3406 3131 3298 2873 
Q 3191 2616 2906 2266 
Q 2828 2175 2409 1742 
Q 1991 1309 1228 531 
z
" transform="scale(0.015625)"/>
       </defs>
       <use xlink:href="#DejaVuSans-30"/>
       <use xlink:href="#DejaVuSans-2e" transform="translate(63.623047 0)"/>
       <use xlink:href="#DejaVuSans-31" transform="translate(95.410156 0)"/>
       <use xlink:href="#DejaVuSans-30" transform="translate(159.033203 0)"/>
       <use xlink:href="#DejaVuSans-2d" transform="translate(222.65625 0)"/>
       <use xlink:href="#DejaVuSans-30" transform="translate(258.740234 0)"/>
       <use xlink:href="#DejaVuSans-2e" transform="translate(322.363281 0)"/>
       <use xlink:href="#DejaVuSans-32" transform="translate(354.150391 0)"/>
       <use xlink:href="#DejaVuSans-30" transform="translate(417.773438 0)"/>
      </g>
     </g>
    </g>
    <g id="xtick_4">
     <g id="line2d_7">
      <path d="M 348.805736 275.992 
L 348.805736 83.76 
" clip-path="url(#p35bc0362d7)" style="fill: none; stroke: #b0b0b0; stroke-opacity: 0.25; stroke-width: 0.8; stroke-linecap: square"/>
     </g>
     <g id="line2d_8">
      <g>
       <use xlink:href="#md9f5f2eb2e" x="348.805736" y="275.992" style="stroke: #000000; stroke-width: 0.8"/>
      </g>
     </g>
     <g id="text_4">
      <!-- &gt;0.20 -->
      <g transform="translate(335.015345 289.830594) scale(0.09 -0.09)">
       <defs>
        <path id="DejaVuSans-3e" d="M 678 3150 
L 678 3719 
L 4684 2266 
L 4684 1747 
L 678 294 
L 678 863 
L 3897 2003 
L 678 3150 
z
" transform="scale(0.015625)"/>
       </defs>
       <use xlink:href="#DejaVuSans-3e"/>
       <use xlink:href="#DejaVuSans-30" transform="translate(83.789062 0)"/>
       <use xlink:href="#DejaVuSans-2e" transform="translate(147.412109 0)"/>
       <use xlink:href="#DejaVuSans-32" transform="translate(179.199219 0)"/>
       <use xlink:href="#DejaVuSans-30" transform="translate(242.822266 0)"/>
      </g>
     </g>
    </g>
    <g id="text_5">
     <!-- True $|\theta_k-\theta_0|$ -->
     <g transform="translate(168.942588 303.402312) scale(0.1 -0.1)">
      <defs>
       <path id="DejaVuSans-54" d="M -19 4666 
L 3928 4666 
L 3928 4134 
L 2272 4134 
L 2272 0 
L 1638 0 
L 1638 4134 
L -19 4134 
L -19 4666 
z
" transform="scale(0.015625)"/>
       <path id="DejaVuSans-72" d="M 2631 2963 
Q 2534 3019 2420 3045 
Q 2306 3072 2169 3072 
Q 1681 3072 1420 2755 
Q 1159 2438 1159 1844 
L 1159 0 
L 581 0 
L 581 3500 
L 1159 3500 
L 1159 2956 
Q 1341 3275 1631 3429 
Q 1922 3584 2338 3584 
Q 2397 3584 2469 3576 
Q 2541 3569 2628 3553 
L 2631 2963 
z
" transform="scale(0.015625)"/>
       <path id="DejaVuSans-75" d="M 544 1381 
L 544 3500 
L 1119 3500 
L 1119 1403 
Q 1119 906 1312 657 
Q 1506 409 1894 409 
Q 2359 409 2629 706 
Q 2900 1003 2900 1516 
L 2900 3500 
L 3475 3500 
L 3475 0 
L 2900 0 
L 2900 538 
Q 2691 219 2414 64 
Q 2138 -91 1772 -91 
Q 1169 -91 856 284 
Q 544 659 544 1381 
z
M 1991 3584 
L 1991 3584 
z
" transform="scale(0.015625)"/>
       <path id="DejaVuSans-65" d="M 3597 1894 
L 3597 1613 
L 953 1613 
Q 991 1019 1311 708 
Q 1631 397 2203 397 
Q 2534 397 2845 478 
Q 3156 559 3463 722 
L 3463 178 
Q 3153 47 2828 -22 
Q 2503 -91 2169 -91 
Q 1331 -91 842 396 
Q 353 884 353 1716 
Q 353 2575 817 3079 
Q 1281 3584 2069 3584 
Q 2775 3584 3186 3129 
Q 3597 2675 3597 1894 
z
M 3022 2063 
Q 3016 2534 2758 2815 
Q 2500 3097 2075 3097 
Q 1594 3097 1305 2825 
Q 1016 2553 972 2059 
L 3022 2063 
z
" transform="scale(0.015625)"/>
       <path id="DejaVuSans-20" transform="scale(0.015625)"/>
       <path id="DejaVuSans-7c" d="M 1344 4891 
L 1344 -1509 
L 813 -1509 
L 813 4891 
L 1344 4891 
z
" transform="scale(0.015625)"/>
       <path id="DejaVuSans-Oblique-3b8" d="M 2913 2219 
L 925 2219 
Q 791 1284 928 888 
Q 1100 400 1566 400 
Q 2034 400 2391 891 
Q 2703 1322 2913 2219 
z
M 3009 2750 
Q 3094 3638 2984 3950 
Q 2813 4444 2353 4444 
Q 1875 4444 1525 3956 
Q 1250 3563 1034 2750 
L 3009 2750 
z
M 2444 4913 
Q 3194 4913 3494 4250 
Q 3794 3591 3566 2422 
Q 3341 1256 2781 594 
Q 2225 -72 1475 -72 
Q 722 -72 425 594 
Q 128 1256 353 2422 
Q 581 3591 1134 4250 
Q 1691 4913 2444 4913 
z
" transform="scale(0.015625)"/>
       <path id="DejaVuSans-Oblique-6b" d="M 1172 4863 
L 1747 4863 
L 1197 2028 
L 3169 3500 
L 3916 3500 
L 1716 1825 
L 3322 0 
L 2625 0 
L 1131 1709 
L 800 0 
L 225 0 
L 1172 4863 
z
" transform="scale(0.015625)"/>
       <path id="DejaVuSans-2212" d="M 678 2272 
L 4684 2272 
L 4684 1741 
L 678 1741 
L 678 2272 
z
" transform="scale(0.015625)"/>
      </defs>
      <use xlink:href="#DejaVuSans-54" transform="translate(0 0.234375)"/>
      <use xlink:href="#DejaVuSans-72" transform="translate(61.083984 0.234375)"/>
      <use xlink:href="#DejaVuSans-75" transform="translate(102.197266 0.234375)"/>
      <use xlink:href="#DejaVuSans-65" transform="translate(165.576172 0.234375)"/>
      <use xlink:href="#DejaVuSans-20" transform="translate(227.099609 0.234375)"/>
      <use xlink:href="#DejaVuSans-7c" transform="translate(258.886719 0.234375)"/>
      <use xlink:href="#DejaVuSans-Oblique-3b8" transform="translate(292.578125 0.234375)"/>
      <use xlink:href="#DejaVuSans-Oblique-6b" transform="translate(353.759766 -16.171875) scale(0.7)"/>
      <use xlink:href="#DejaVuSans-2212" transform="translate(416.513672 0.234375)"/>
      <use xlink:href="#DejaVuSans-Oblique-3b8" transform="translate(519.785156 0.234375)"/>
      <use xlink:href="#DejaVuSans-30" transform="translate(580.966797 -16.171875) scale(0.7)"/>
      <use xlink:href="#DejaVuSans-7c" transform="translate(628.237305 0.234375)"/>
     </g>
    </g>
   </g>
   <g id="matplotlib.axis_2">
    <g id="ytick_1">
     <g id="line2d_9">
      <path d="M 40.603125 268.679875 
L 363.482051 268.679875 
" clip-path="url(#p35bc0362d7)" style="fill: none; stroke: #b0b0b0; stroke-opacity: 0.25; stroke-width: 0.8; stroke-linecap: square"/>
     </g>
     <g id="line2d_10">
      <defs>
       <path id="mb14cbf2e5f" d="M 0 0 
L -3.5 0 
" style="stroke: #000000; stroke-width: 0.8"/>
      </defs>
      <g>
       <use xlink:href="#mb14cbf2e5f" x="40.603125" y="268.679875" style="stroke: #000000; stroke-width: 0.8"/>
      </g>
     </g>
     <g id="text_6">
      <!-- 15 -->
      <g transform="translate(20.878125 272.479094) scale(0.1 -0.1)">
       <use xlink:href="#DejaVuSans-31"/>
       <use xlink:href="#DejaVuSans-35" transform="translate(63.623047 0)"/>
      </g>
     </g>
    </g>
    <g id="ytick_2">
     <g id="line2d_11">
      <path d="M 40.603125 238.721704 
L 363.482051 238.721704 
" clip-path="url(#p35bc0362d7)" style="fill: none; stroke: #b0b0b0; stroke-opacity: 0.25; stroke-width: 0.8; stroke-linecap: square"/>
     </g>
     <g id="line2d_12">
      <g>
       <use xlink:href="#mb14cbf2e5f" x="40.603125" y="238.721704" style="stroke: #000000; stroke-width: 0.8"/>
      </g>
     </g>
     <g id="text_7">
      <!-- 20 -->
      <g transform="translate(20.878125 242.520922) scale(0.1 -0.1)">
       <use xlink:href="#DejaVuSans-32"/>
       <use xlink:href="#DejaVuSans-30" transform="translate(63.623047 0)"/>
      </g>
     </g>
    </g>
    <g id="ytick_3">
     <g id="line2d_13">
      <path d="M 40.603125 208.763532 
L 363.482051 208.763532 
" clip-path="url(#p35bc0362d7)" style="fill: none; stroke: #b0b0b0; stroke-opacity: 0.25; stroke-width: 0.8; stroke-linecap: square"/>
     </g>
     <g id="line2d_14">
      <g>
       <use xlink:href="#mb14cbf2e5f" x="40.603125" y="208.763532" style="stroke: #000000; stroke-width: 0.8"/>
      </g>
     </g>
     <g id="text_8">
      <!-- 25 -->
      <g transform="translate(20.878125 212.562751) scale(0.1 -0.1)">
       <use xlink:href="#DejaVuSans-32"/>
       <use xlink:href="#DejaVuSans-35" transform="translate(63.623047 0)"/>
      </g>
     </g>
    </g>
    <g id="ytick_4">
     <g id="line2d_15">
      <path d="M 40.603125 178.80536 
L 363.482051 178.80536 
" clip-path="url(#p35bc0362d7)" style="fill: none; stroke: #b0b0b0; stroke-opacity: 0.25; stroke-width: 0.8; stroke-linecap: square"/>
     </g>
     <g id="line2d_16">
      <g>
       <use xlink:href="#mb14cbf2e5f" x="40.603125" y="178.80536" style="stroke: #000000; stroke-width: 0.8"/>
      </g>
     </g>
     <g id="text_9">
      <!-- 30 -->
      <g transform="translate(20.878125 182.604579) scale(0.1 -0.1)">
       <defs>
        <path id="DejaVuSans-33" d="M 2597 2516 
Q 3050 2419 3304 2112 
Q 3559 1806 3559 1356 
Q 3559 666 3084 287 
Q 2609 -91 1734 -91 
Q 1441 -91 1130 -33 
Q 819 25 488 141 
L 488 750 
Q 750 597 1062 519 
Q 1375 441 1716 441 
Q 2309 441 2620 675 
Q 2931 909 2931 1356 
Q 2931 1769 2642 2001 
Q 2353 2234 1838 2234 
L 1294 2234 
L 1294 2753 
L 1863 2753 
Q 2328 2753 2575 2939 
Q 2822 3125 2822 3475 
Q 2822 3834 2567 4026 
Q 2313 4219 1838 4219 
Q 1578 4219 1281 4162 
Q 984 4106 628 3988 
L 628 4550 
Q 988 4650 1302 4700 
Q 1616 4750 1894 4750 
Q 2613 4750 3031 4423 
Q 3450 4097 3450 3541 
Q 3450 3153 3228 2886 
Q 3006 2619 2597 2516 
z
" transform="scale(0.015625)"/>
       </defs>
       <use xlink:href="#DejaVuSans-33"/>
       <use xlink:href="#DejaVuSans-30" transform="translate(63.623047 0)"/>
      </g>
     </g>
    </g>
    <g id="ytick_5">
     <g id="line2d_17">
      <path d="M 40.603125 148.847189 
L 363.482051 148.847189 
" clip-path="url(#p35bc0362d7)" style="fill: none; stroke: #b0b0b0; stroke-opacity: 0.25; stroke-width: 0.8; stroke-linecap: square"/>
     </g>
     <g id="line2d_18">
      <g>
       <use xlink:href="#mb14cbf2e5f" x="40.603125" y="148.847189" style="stroke: #000000; stroke-width: 0.8"/>
      </g>
     </g>
     <g id="text_10">
      <!-- 35 -->
      <g transform="translate(20.878125 152.646408) scale(0.1 -0.1)">
       <use xlink:href="#DejaVuSans-33"/>
       <use xlink:href="#DejaVuSans-35" transform="translate(63.623047 0)"/>
      </g>
     </g>
    </g>
    <g id="ytick_6">
     <g id="line2d_19">
      <path d="M 40.603125 118.889017 
L 363.482051 118.889017 
" clip-path="url(#p35bc0362d7)" style="fill: none; stroke: #b0b0b0; stroke-opacity: 0.25; stroke-width: 0.8; stroke-linecap: square"/>
     </g>
     <g id="line2d_20">
      <g>
       <use xlink:href="#mb14cbf2e5f" x="40.603125" y="118.889017" style="stroke: #000000; stroke-width: 0.8"/>
      </g>
     </g>
     <g id="text_11">
      <!-- 40 -->
      <g transform="translate(20.878125 122.688236) scale(0.1 -0.1)">
       <defs>
        <path id="DejaVuSans-34" d="M 2419 4116 
L 825 1625 
L 2419 1625 
L 2419 4116 
z
M 2253 4666 
L 3047 4666 
L 3047 1625 
L 3713 1625 
L 3713 1100 
L 3047 1100 
L 3047 0 
L 2419 0 
L 2419 1100 
L 313 1100 
L 313 1709 
L 2253 4666 
z
" transform="scale(0.015625)"/>
       </defs>
       <use xlink:href="#DejaVuSans-34"/>
       <use xlink:href="#DejaVuSans-30" transform="translate(63.623047 0)"/>
      </g>
     </g>
    </g>
    <g id="ytick_7">
     <g id="line2d_21">
      <path d="M 40.603125 88.930846 
L 363.482051 88.930846 
" clip-path="url(#p35bc0362d7)" style="fill: none; stroke: #b0b0b0; stroke-opacity: 0.25; stroke-width: 0.8; stroke-linecap: square"/>
     </g>
     <g id="line2d_22">
      <g>
       <use xlink:href="#mb14cbf2e5f" x="40.603125" y="88.930846" style="stroke: #000000; stroke-width: 0.8"/>
      </g>
     </g>
     <g id="text_12">
      <!-- 45 -->
      <g transform="translate(20.878125 92.730064) scale(0.1 -0.1)">
       <use xlink:href="#DejaVuSans-34"/>
       <use xlink:href="#DejaVuSans-35" transform="translate(63.623047 0)"/>
      </g>
     </g>
    </g>
    <g id="text_13">
     <!-- Learned per-source ESS -->
     <g transform="translate(14.798438 239.181469) rotate(-90) scale(0.1 -0.1)">
      <defs>
       <path id="DejaVuSans-4c" d="M 628 4666 
L 1259 4666 
L 1259 531 
L 3531 531 
L 3531 0 
L 628 0 
L 628 4666 
z
" transform="scale(0.015625)"/>
       <path id="DejaVuSans-61" d="M 2194 1759 
Q 1497 1759 1228 1600 
Q 959 1441 959 1056 
Q 959 750 1161 570 
Q 1363 391 1709 391 
Q 2188 391 2477 730 
Q 2766 1069 2766 1631 
L 2766 1759 
L 2194 1759 
z
M 3341 1997 
L 3341 0 
L 2766 0 
L 2766 531 
Q 2569 213 2275 61 
Q 1981 -91 1556 -91 
Q 1019 -91 701 211 
Q 384 513 384 1019 
Q 384 1609 779 1909 
Q 1175 2209 1959 2209 
L 2766 2209 
L 2766 2266 
Q 2766 2663 2505 2880 
Q 2244 3097 1772 3097 
Q 1472 3097 1187 3025 
Q 903 2953 641 2809 
L 641 3341 
Q 956 3463 1253 3523 
Q 1550 3584 1831 3584 
Q 2591 3584 2966 3190 
Q 3341 2797 3341 1997 
z
" transform="scale(0.015625)"/>
       <path id="DejaVuSans-6e" d="M 3513 2113 
L 3513 0 
L 2938 0 
L 2938 2094 
Q 2938 2591 2744 2837 
Q 2550 3084 2163 3084 
Q 1697 3084 1428 2787 
Q 1159 2491 1159 1978 
L 1159 0 
L 581 0 
L 581 3500 
L 1159 3500 
L 1159 2956 
Q 1366 3272 1645 3428 
Q 1925 3584 2291 3584 
Q 2894 3584 3203 3211 
Q 3513 2838 3513 2113 
z
" transform="scale(0.015625)"/>
       <path id="DejaVuSans-64" d="M 2906 2969 
L 2906 4863 
L 3481 4863 
L 3481 0 
L 2906 0 
L 2906 525 
Q 2725 213 2448 61 
Q 2172 -91 1784 -91 
Q 1150 -91 751 415 
Q 353 922 353 1747 
Q 353 2572 751 3078 
Q 1150 3584 1784 3584 
Q 2172 3584 2448 3432 
Q 2725 3281 2906 2969 
z
M 947 1747 
Q 947 1113 1208 752 
Q 1469 391 1925 391 
Q 2381 391 2643 752 
Q 2906 1113 2906 1747 
Q 2906 2381 2643 2742 
Q 2381 3103 1925 3103 
Q 1469 3103 1208 2742 
Q 947 2381 947 1747 
z
" transform="scale(0.015625)"/>
       <path id="DejaVuSans-70" d="M 1159 525 
L 1159 -1331 
L 581 -1331 
L 581 3500 
L 1159 3500 
L 1159 2969 
Q 1341 3281 1617 3432 
Q 1894 3584 2278 3584 
Q 2916 3584 3314 3078 
Q 3713 2572 3713 1747 
Q 3713 922 3314 415 
Q 2916 -91 2278 -91 
Q 1894 -91 1617 61 
Q 1341 213 1159 525 
z
M 3116 1747 
Q 3116 2381 2855 2742 
Q 2594 3103 2138 3103 
Q 1681 3103 1420 2742 
Q 1159 2381 1159 1747 
Q 1159 1113 1420 752 
Q 1681 391 2138 391 
Q 2594 391 2855 752 
Q 3116 1113 3116 1747 
z
" transform="scale(0.015625)"/>
       <path id="DejaVuSans-73" d="M 2834 3397 
L 2834 2853 
Q 2591 2978 2328 3040 
Q 2066 3103 1784 3103 
Q 1356 3103 1142 2972 
Q 928 2841 928 2578 
Q 928 2378 1081 2264 
Q 1234 2150 1697 2047 
L 1894 2003 
Q 2506 1872 2764 1633 
Q 3022 1394 3022 966 
Q 3022 478 2636 193 
Q 2250 -91 1575 -91 
Q 1294 -91 989 -36 
Q 684 19 347 128 
L 347 722 
Q 666 556 975 473 
Q 1284 391 1588 391 
Q 1994 391 2212 530 
Q 2431 669 2431 922 
Q 2431 1156 2273 1281 
Q 2116 1406 1581 1522 
L 1381 1569 
Q 847 1681 609 1914 
Q 372 2147 372 2553 
Q 372 3047 722 3315 
Q 1072 3584 1716 3584 
Q 2034 3584 2315 3537 
Q 2597 3491 2834 3397 
z
" transform="scale(0.015625)"/>
       <path id="DejaVuSans-6f" d="M 1959 3097 
Q 1497 3097 1228 2736 
Q 959 2375 959 1747 
Q 959 1119 1226 758 
Q 1494 397 1959 397 
Q 2419 397 2687 759 
Q 2956 1122 2956 1747 
Q 2956 2369 2687 2733 
Q 2419 3097 1959 3097 
z
M 1959 3584 
Q 2709 3584 3137 3096 
Q 3566 2609 3566 1747 
Q 3566 888 3137 398 
Q 2709 -91 1959 -91 
Q 1206 -91 779 398 
Q 353 888 353 1747 
Q 353 2609 779 3096 
Q 1206 3584 1959 3584 
z
" transform="scale(0.015625)"/>
       <path id="DejaVuSans-63" d="M 3122 3366 
L 3122 2828 
Q 2878 2963 2633 3030 
Q 2388 3097 2138 3097 
Q 1578 3097 1268 2742 
Q 959 2388 959 1747 
Q 959 1106 1268 751 
Q 1578 397 2138 397 
Q 2388 397 2633 464 
Q 2878 531 3122 666 
L 3122 134 
Q 2881 22 2623 -34 
Q 2366 -91 2075 -91 
Q 1284 -91 818 406 
Q 353 903 353 1747 
Q 353 2603 823 3093 
Q 1294 3584 2113 3584 
Q 2378 3584 2631 3529 
Q 2884 3475 3122 3366 
z
" transform="scale(0.015625)"/>
       <path id="DejaVuSans-45" d="M 628 4666 
L 3578 4666 
L 3578 4134 
L 1259 4134 
L 1259 2753 
L 3481 2753 
L 3481 2222 
L 1259 2222 
L 1259 531 
L 3634 531 
L 3634 0 
L 628 0 
L 628 4666 
z
" transform="scale(0.015625)"/>
       <path id="DejaVuSans-53" d="M 3425 4513 
L 3425 3897 
Q 3066 4069 2747 4153 
Q 2428 4238 2131 4238 
Q 1616 4238 1336 4038 
Q 1056 3838 1056 3469 
Q 1056 3159 1242 3001 
Q 1428 2844 1947 2747 
L 2328 2669 
Q 3034 2534 3370 2195 
Q 3706 1856 3706 1288 
Q 3706 609 3251 259 
Q 2797 -91 1919 -91 
Q 1588 -91 1214 -16 
Q 841 59 441 206 
L 441 856 
Q 825 641 1194 531 
Q 1563 422 1919 422 
Q 2459 422 2753 634 
Q 3047 847 3047 1241 
Q 3047 1584 2836 1778 
Q 2625 1972 2144 2069 
L 1759 2144 
Q 1053 2284 737 2584 
Q 422 2884 422 3419 
Q 422 4038 858 4394 
Q 1294 4750 2059 4750 
Q 2388 4750 2728 4690 
Q 3069 4631 3425 4513 
z
" transform="scale(0.015625)"/>
      </defs>
      <use xlink:href="#DejaVuSans-4c"/>
      <use xlink:href="#DejaVuSans-65" transform="translate(53.962891 0)"/>
      <use xlink:href="#DejaVuSans-61" transform="translate(115.486328 0)"/>
      <use xlink:href="#DejaVuSans-72" transform="translate(176.765625 0)"/>
      <use xlink:href="#DejaVuSans-6e" transform="translate(216.128906 0)"/>
      <use xlink:href="#DejaVuSans-65" transform="translate(279.507812 0)"/>
      <use xlink:href="#DejaVuSans-64" transform="translate(341.03125 0)"/>
      <use xlink:href="#DejaVuSans-20" transform="translate(404.507812 0)"/>
      <use xlink:href="#DejaVuSans-70" transform="translate(436.294922 0)"/>
      <use xlink:href="#DejaVuSans-65" transform="translate(499.771484 0)"/>
      <use xlink:href="#DejaVuSans-72" transform="translate(561.294922 0)"/>
      <use xlink:href="#DejaVuSans-2d" transform="translate(596.033203 0)"/>
      <use xlink:href="#DejaVuSans-73" transform="translate(632.117188 0)"/>
      <use xlink:href="#DejaVuSans-6f" transform="translate(684.216797 0)"/>
      <use xlink:href="#DejaVuSans-75" transform="translate(745.398438 0)"/>
      <use xlink:href="#DejaVuSans-72" transform="translate(808.777344 0)"/>
      <use xlink:href="#DejaVuSans-63" transform="translate(847.640625 0)"/>
      <use xlink:href="#DejaVuSans-65" transform="translate(902.621094 0)"/>
      <use xlink:href="#DejaVuSans-20" transform="translate(964.144531 0)"/>
      <use xlink:href="#DejaVuSans-45" transform="translate(995.931641 0)"/>
      <use xlink:href="#DejaVuSans-53" transform="translate(1059.115234 0)"/>
      <use xlink:href="#DejaVuSans-53" transform="translate(1122.591797 0)"/>
     </g>
    </g>
   </g>
   <g id="line2d_23">
    <path d="M 55.27944 96.891362 
L 153.121538 95.25313 
L 250.963637 94.195364 
L 348.805736 95.860973 
" clip-path="url(#p35bc0362d7)" style="fill: none; stroke-dasharray: 7.4,3.2; stroke-dashoffset: 0; stroke: #999999; stroke-width: 2"/>
    <defs>
     <path id="m26d7d9d000" d="M 0 3.5 
C 0.928211 3.5 1.81853 3.131218 2.474874 2.474874 
C 3.131218 1.81853 3.5 0.928211 3.5 0 
C 3.5 -0.928211 3.131218 -1.81853 2.474874 -2.474874 
C 1.81853 -3.131218 0.928211 -3.5 0 -3.5 
C -0.928211 -3.5 -1.81853 -3.131218 -2.474874 -2.474874 
C -3.131218 -1.81853 -3.5 -0.928211 -3.5 0 
C -3.5 0.928211 -3.131218 1.81853 -2.474874 2.474874 
C -1.81853 3.131218 -0.928211 3.5 0 3.5 
z
" style="stroke: #999999"/>
    </defs>
    <g clip-path="url(#p35bc0362d7)">
     <use xlink:href="#m26d7d9d000" x="55.27944" y="96.891362" style="fill: #999999; stroke: #999999"/>
     <use xlink:href="#m26d7d9d000" x="153.121538" y="95.25313" style="fill: #999999; stroke: #999999"/>
     <use xlink:href="#m26d7d9d000" x="250.963637" y="94.195364" style="fill: #999999; stroke: #999999"/>
     <use xlink:href="#m26d7d9d000" x="348.805736" y="95.860973" style="fill: #999999; stroke: #999999"/>
    </g>
   </g>
   <g id="line2d_24">
    <path d="M 55.27944 149.698934 
L 153.121538 170.911473 
L 250.963637 213.465334 
L 348.805736 236.804826 
" clip-path="url(#p35bc0362d7)" style="fill: none; stroke: #1f4e79; stroke-width: 2; stroke-linecap: square"/>
    <defs>
     <path id="m036aea5ee4" d="M -3.5 3.5 
L 3.5 3.5 
L 3.5 -3.5 
L -3.5 -3.5 
z
" style="stroke: #1f4e79; stroke-linejoin: miter"/>
    </defs>
    <g clip-path="url(#p35bc0362d7)">
     <use xlink:href="#m036aea5ee4" x="55.27944" y="149.698934" style="fill: #1f4e79; stroke: #1f4e79; stroke-linejoin: miter"/>
     <use xlink:href="#m036aea5ee4" x="153.121538" y="170.911473" style="fill: #1f4e79; stroke: #1f4e79; stroke-linejoin: miter"/>
     <use xlink:href="#m036aea5ee4" x="250.963637" y="213.465334" style="fill: #1f4e79; stroke: #1f4e79; stroke-linejoin: miter"/>
     <use xlink:href="#m036aea5ee4" x="348.805736" y="236.804826" style="fill: #1f4e79; stroke: #1f4e79; stroke-linejoin: miter"/>
    </g>
   </g>
   <g id="line2d_25">
    <path d="M 55.27944 266.965989 
L 153.121538 266.388249 
L 250.963637 266.011137 
L 348.805736 266.590436 
" clip-path="url(#p35bc0362d7)" style="fill: none; stroke-dasharray: 2,3.3; stroke-dashoffset: 0; stroke: #c0504d; stroke-width: 2"/>
    <defs>
     <path id="maa42e12412" d="M 0 -3.5 
L -3.5 3.5 
L 3.5 3.5 
z
" style="stroke: #c0504d; stroke-linejoin: miter"/>
    </defs>
    <g clip-path="url(#p35bc0362d7)">
     <use xlink:href="#maa42e12412" x="55.27944" y="266.965989" style="fill: #c0504d; stroke: #c0504d; stroke-linejoin: miter"/>
     <use xlink:href="#maa42e12412" x="153.121538" y="266.388249" style="fill: #c0504d; stroke: #c0504d; stroke-linejoin: miter"/>
     <use xlink:href="#maa42e12412" x="250.963637" y="266.011137" style="fill: #c0504d; stroke: #c0504d; stroke-linejoin: miter"/>
     <use xlink:href="#maa42e12412" x="348.805736" y="266.590436" style="fill: #c0504d; stroke: #c0504d; stroke-linejoin: miter"/>
    </g>
   </g>
   <g id="patch_3">
    <path d="M 40.603125 275.992 
L 40.603125 83.76 
" style="fill: none; stroke: #000000; stroke-width: 0.8; stroke-linejoin: miter; stroke-linecap: square"/>
   </g>
   <g id="patch_4">
    <path d="M 363.482051 275.992 
L 363.482051 83.76 
" style="fill: none; stroke: #000000; stroke-width: 0.8; stroke-linejoin: miter; stroke-linecap: square"/>
   </g>
   <g id="patch_5">
    <path d="M 40.603125 275.992 
L 363.482051 275.992 
" style="fill: none; stroke: #000000; stroke-width: 0.8; stroke-linejoin: miter; stroke-linecap: square"/>
   </g>
   <g id="patch_6">
    <path d="M 40.603125 83.76 
L 363.482051 83.76 
" style="fill: none; stroke: #000000; stroke-width: 0.8; stroke-linejoin: miter; stroke-linecap: square"/>
   </g>
   <g id="text_14">
    <!-- S1 exchangeable -->
    <g transform="translate(159.13165 77.76) scale(0.1 -0.1)">
     <defs>
      <path id="DejaVuSans-78" d="M 3513 3500 
L 2247 1797 
L 3578 0 
L 2900 0 
L 1881 1375 
L 863 0 
L 184 0 
L 1544 1831 
L 300 3500 
L 978 3500 
L 1906 2253 
L 2834 3500 
L 3513 3500 
z
" transform="scale(0.015625)"/>
      <path id="DejaVuSans-68" d="M 3513 2113 
L 3513 0 
L 2938 0 
L 2938 2094 
Q 2938 2591 2744 2837 
Q 2550 3084 2163 3084 
Q 1697 3084 1428 2787 
Q 1159 2491 1159 1978 
L 1159 0 
L 581 0 
L 581 4863 
L 1159 4863 
L 1159 2956 
Q 1366 3272 1645 3428 
Q 1925 3584 2291 3584 
Q 2894 3584 3203 3211 
Q 3513 2838 3513 2113 
z
" transform="scale(0.015625)"/>
      <path id="DejaVuSans-67" d="M 2906 1791 
Q 2906 2416 2648 2759 
Q 2391 3103 1925 3103 
Q 1463 3103 1205 2759 
Q 947 2416 947 1791 
Q 947 1169 1205 825 
Q 1463 481 1925 481 
Q 2391 481 2648 825 
Q 2906 1169 2906 1791 
z
M 3481 434 
Q 3481 -459 3084 -895 
Q 2688 -1331 1869 -1331 
Q 1566 -1331 1297 -1286 
Q 1028 -1241 775 -1147 
L 775 -588 
Q 1028 -725 1275 -790 
Q 1522 -856 1778 -856 
Q 2344 -856 2625 -561 
Q 2906 -266 2906 331 
L 2906 616 
Q 2728 306 2450 153 
Q 2172 0 1784 0 
Q 1141 0 747 490 
Q 353 981 353 1791 
Q 353 2603 747 3093 
Q 1141 3584 1784 3584 
Q 2172 3584 2450 3431 
Q 2728 3278 2906 2969 
L 2906 3500 
L 3481 3500 
L 3481 434 
z
" transform="scale(0.015625)"/>
      <path id="DejaVuSans-62" d="M 3116 1747 
Q 3116 2381 2855 2742 
Q 2594 3103 2138 3103 
Q 1681 3103 1420 2742 
Q 1159 2381 1159 1747 
Q 1159 1113 1420 752 
Q 1681 391 2138 391 
Q 2594 391 2855 752 
Q 3116 1113 3116 1747 
z
M 1159 2969 
Q 1341 3281 1617 3432 
Q 1894 3584 2278 3584 
Q 2916 3584 3314 3078 
Q 3713 2572 3713 1747 
Q 3713 922 3314 415 
Q 2916 -91 2278 -91 
Q 1894 -91 1617 61 
Q 1341 213 1159 525 
L 1159 0 
L 581 0 
L 581 4863 
L 1159 4863 
L 1159 2969 
z
" transform="scale(0.015625)"/>
      <path id="DejaVuSans-6c" d="M 603 4863 
L 1178 4863 
L 1178 0 
L 603 0 
L 603 4863 
z
" transform="scale(0.015625)"/>
     </defs>
     <use xlink:href="#DejaVuSans-53"/>
     <use xlink:href="#DejaVuSans-31" transform="translate(63.476562 0)"/>
     <use xlink:href="#DejaVuSans-20" transform="translate(127.099609 0)"/>
     <use xlink:href="#DejaVuSans-65" transform="translate(158.886719 0)"/>
     <use xlink:href="#DejaVuSans-78" transform="translate(218.660156 0)"/>
     <use xlink:href="#DejaVuSans-63" transform="translate(276.089844 0)"/>
     <use xlink:href="#DejaVuSans-68" transform="translate(331.070312 0)"/>
     <use xlink:href="#DejaVuSans-61" transform="translate(394.449219 0)"/>
     <use xlink:href="#DejaVuSans-6e" transform="translate(455.728516 0)"/>
     <use xlink:href="#DejaVuSans-67" transform="translate(519.107422 0)"/>
     <use xlink:href="#DejaVuSans-65" transform="translate(582.583984 0)"/>
     <use xlink:href="#DejaVuSans-61" transform="translate(644.107422 0)"/>
     <use xlink:href="#DejaVuSans-62" transform="translate(705.386719 0)"/>
     <use xlink:href="#DejaVuSans-6c" transform="translate(768.863281 0)"/>
     <use xlink:href="#DejaVuSans-65" transform="translate(796.646484 0)"/>
    </g>
   </g>
   <g id="legend_1">
    <g id="patch_7">
     <path d="M 46.203125 271.992 
L 229.463125 271.992 
Q 231.063125 271.992 231.063125 270.392 
L 231.063125 235.9645 
Q 231.063125 234.3645 229.463125 234.3645 
L 46.203125 234.3645 
Q 44.603125 234.3645 44.603125 235.9645 
L 44.603125 270.392 
Q 44.603125 271.992 46.203125 271.992 
z
" style="fill: #ffffff; opacity: 0.8; stroke: #cccccc; stroke-linejoin: miter"/>
    </g>
    <g id="line2d_26">
     <path d="M 47.803125 240.84325 
L 55.803125 240.84325 
L 63.803125 240.84325 
" style="fill: none; stroke-dasharray: 7.4,3.2; stroke-dashoffset: 0; stroke: #999999; stroke-width: 2"/>
     <g>
      <use xlink:href="#m26d7d9d000" x="55.803125" y="240.84325" style="fill: #999999; stroke: #999999"/>
     </g>
    </g>
    <g id="text_15">
     <!-- Two-head (no prospective) -->
     <g transform="translate(70.203125 243.64325) scale(0.08 -0.08)">
      <defs>
       <path id="DejaVuSans-77" d="M 269 3500 
L 844 3500 
L 1563 769 
L 2278 3500 
L 2956 3500 
L 3675 769 
L 4391 3500 
L 4966 3500 
L 4050 0 
L 3372 0 
L 2619 2869 
L 1863 0 
L 1184 0 
L 269 3500 
z
" transform="scale(0.015625)"/>
       <path id="DejaVuSans-28" d="M 1984 4856 
Q 1566 4138 1362 3434 
Q 1159 2731 1159 2009 
Q 1159 1288 1364 580 
Q 1569 -128 1984 -844 
L 1484 -844 
Q 1016 -109 783 600 
Q 550 1309 550 2009 
Q 550 2706 781 3412 
Q 1013 4119 1484 4856 
L 1984 4856 
z
" transform="scale(0.015625)"/>
       <path id="DejaVuSans-74" d="M 1172 4494 
L 1172 3500 
L 2356 3500 
L 2356 3053 
L 1172 3053 
L 1172 1153 
Q 1172 725 1289 603 
Q 1406 481 1766 481 
L 2356 481 
L 2356 0 
L 1766 0 
Q 1100 0 847 248 
Q 594 497 594 1153 
L 594 3053 
L 172 3053 
L 172 3500 
L 594 3500 
L 594 4494 
L 1172 4494 
z
" transform="scale(0.015625)"/>
       <path id="DejaVuSans-69" d="M 603 3500 
L 1178 3500 
L 1178 0 
L 603 0 
L 603 3500 
z
M 603 4863 
L 1178 4863 
L 1178 4134 
L 603 4134 
L 603 4863 
z
" transform="scale(0.015625)"/>
       <path id="DejaVuSans-76" d="M 191 3500 
L 800 3500 
L 1894 563 
L 2988 3500 
L 3597 3500 
L 2284 0 
L 1503 0 
L 191 3500 
z
" transform="scale(0.015625)"/>
       <path id="DejaVuSans-29" d="M 513 4856 
L 1013 4856 
Q 1481 4119 1714 3412 
Q 1947 2706 1947 2009 
Q 1947 1309 1714 600 
Q 1481 -109 1013 -844 
L 513 -844 
Q 928 -128 1133 580 
Q 1338 1288 1338 2009 
Q 1338 2731 1133 3434 
Q 928 4138 513 4856 
z
" transform="scale(0.015625)"/>
      </defs>
      <use xlink:href="#DejaVuSans-54"/>
      <use xlink:href="#DejaVuSans-77" transform="translate(44.583984 0)"/>
      <use xlink:href="#DejaVuSans-6f" transform="translate(126.371094 0)"/>
      <use xlink:href="#DejaVuSans-2d" transform="translate(189.427734 0)"/>
      <use xlink:href="#DejaVuSans-68" transform="translate(225.511719 0)"/>
      <use xlink:href="#DejaVuSans-65" transform="translate(288.890625 0)"/>
      <use xlink:href="#DejaVuSans-61" transform="translate(350.414062 0)"/>
      <use xlink:href="#DejaVuSans-64" transform="translate(411.693359 0)"/>
      <use xlink:href="#DejaVuSans-20" transform="translate(475.169922 0)"/>
      <use xlink:href="#DejaVuSans-28" transform="translate(506.957031 0)"/>
      <use xlink:href="#DejaVuSans-6e" transform="translate(545.970703 0)"/>
      <use xlink:href="#DejaVuSans-6f" transform="translate(609.349609 0)"/>
      <use xlink:href="#DejaVuSans-20" transform="translate(670.53125 0)"/>
      <use xlink:href="#DejaVuSans-70" transform="translate(702.318359 0)"/>
      <use xlink:href="#DejaVuSans-72" transform="translate(765.794922 0)"/>
      <use xlink:href="#DejaVuSans-6f" transform="translate(804.658203 0)"/>
      <use xlink:href="#DejaVuSans-73" transform="translate(865.839844 0)"/>
      <use xlink:href="#DejaVuSans-70" transform="translate(917.939453 0)"/>
      <use xlink:href="#DejaVuSans-65" transform="translate(981.416016 0)"/>
      <use xlink:href="#DejaVuSans-63" transform="translate(1042.939453 0)"/>
      <use xlink:href="#DejaVuSans-74" transform="translate(1097.919922 0)"/>
      <use xlink:href="#DejaVuSans-69" transform="translate(1137.128906 0)"/>
      <use xlink:href="#DejaVuSans-76" transform="translate(1164.912109 0)"/>
      <use xlink:href="#DejaVuSans-65" transform="translate(1224.091797 0)"/>
      <use xlink:href="#DejaVuSans-29" transform="translate(1285.615234 0)"/>
     </g>
    </g>
    <g id="line2d_27">
     <path d="M 47.803125 252.58575 
L 55.803125 252.58575 
L 63.803125 252.58575 
" style="fill: none; stroke: #1f4e79; stroke-width: 2; stroke-linecap: square"/>
     <g>
      <use xlink:href="#m036aea5ee4" x="55.803125" y="252.58575" style="fill: #1f4e79; stroke: #1f4e79; stroke-linejoin: miter"/>
     </g>
    </g>
    <g id="text_16">
     <!-- Two-head + prospective -->
     <g transform="translate(70.203125 255.38575) scale(0.08 -0.08)">
      <defs>
       <path id="DejaVuSans-2b" d="M 2944 4013 
L 2944 2272 
L 4684 2272 
L 4684 1741 
L 2944 1741 
L 2944 0 
L 2419 0 
L 2419 1741 
L 678 1741 
L 678 2272 
L 2419 2272 
L 2419 4013 
L 2944 4013 
z
" transform="scale(0.015625)"/>
      </defs>
      <use xlink:href="#DejaVuSans-54"/>
      <use xlink:href="#DejaVuSans-77" transform="translate(44.583984 0)"/>
      <use xlink:href="#DejaVuSans-6f" transform="translate(126.371094 0)"/>
      <use xlink:href="#DejaVuSans-2d" transform="translate(189.427734 0)"/>
      <use xlink:href="#DejaVuSans-68" transform="translate(225.511719 0)"/>
      <use xlink:href="#DejaVuSans-65" transform="translate(288.890625 0)"/>
      <use xlink:href="#DejaVuSans-61" transform="translate(350.414062 0)"/>
      <use xlink:href="#DejaVuSans-64" transform="translate(411.693359 0)"/>
      <use xlink:href="#DejaVuSans-20" transform="translate(475.169922 0)"/>
      <use xlink:href="#DejaVuSans-2b" transform="translate(506.957031 0)"/>
      <use xlink:href="#DejaVuSans-20" transform="translate(590.746094 0)"/>
      <use xlink:href="#DejaVuSans-70" transform="translate(622.533203 0)"/>
      <use xlink:href="#DejaVuSans-72" transform="translate(686.009766 0)"/>
      <use xlink:href="#DejaVuSans-6f" transform="translate(724.873047 0)"/>
      <use xlink:href="#DejaVuSans-73" transform="translate(786.054688 0)"/>
      <use xlink:href="#DejaVuSans-70" transform="translate(838.154297 0)"/>
      <use xlink:href="#DejaVuSans-65" transform="translate(901.630859 0)"/>
      <use xlink:href="#DejaVuSans-63" transform="translate(963.154297 0)"/>
      <use xlink:href="#DejaVuSans-74" transform="translate(1018.134766 0)"/>
      <use xlink:href="#DejaVuSans-69" transform="translate(1057.34375 0)"/>
      <use xlink:href="#DejaVuSans-76" transform="translate(1085.126953 0)"/>
      <use xlink:href="#DejaVuSans-65" transform="translate(1144.306641 0)"/>
     </g>
    </g>
    <g id="line2d_28">
     <path d="M 47.803125 264.32825 
L 55.803125 264.32825 
L 63.803125 264.32825 
" style="fill: none; stroke-dasharray: 2,3.3; stroke-dashoffset: 0; stroke: #c0504d; stroke-width: 2"/>
     <g>
      <use xlink:href="#maa42e12412" x="55.803125" y="264.32825" style="fill: #c0504d; stroke: #c0504d; stroke-linejoin: miter"/>
     </g>
    </g>
    <g id="text_17">
     <!-- Two-head + prospective, fixed discount -->
     <g transform="translate(70.203125 267.12825) scale(0.08 -0.08)">
      <defs>
       <path id="DejaVuSans-2c" d="M 750 794 
L 1409 794 
L 1409 256 
L 897 -744 
L 494 -744 
L 750 256 
L 750 794 
z
" transform="scale(0.015625)"/>
       <path id="DejaVuSans-66" d="M 2375 4863 
L 2375 4384 
L 1825 4384 
Q 1516 4384 1395 4259 
Q 1275 4134 1275 3809 
L 1275 3500 
L 2222 3500 
L 2222 3053 
L 1275 3053 
L 1275 0 
L 697 0 
L 697 3053 
L 147 3053 
L 147 3500 
L 697 3500 
L 697 3744 
Q 697 4328 969 4595 
Q 1241 4863 1831 4863 
L 2375 4863 
z
" transform="scale(0.015625)"/>
      </defs>
      <use xlink:href="#DejaVuSans-54"/>
      <use xlink:href="#DejaVuSans-77" transform="translate(44.583984 0)"/>
      <use xlink:href="#DejaVuSans-6f" transform="translate(126.371094 0)"/>
      <use xlink:href="#DejaVuSans-2d" transform="translate(189.427734 0)"/>
      <use xlink:href="#DejaVuSans-68" transform="translate(225.511719 0)"/>
      <use xlink:href="#DejaVuSans-65" transform="translate(288.890625 0)"/>
      <use xlink:href="#DejaVuSans-61" transform="translate(350.414062 0)"/>
      <use xlink:href="#DejaVuSans-64" transform="translate(411.693359 0)"/>
      <use xlink:href="#DejaVuSans-20" transform="translate(475.169922 0)"/>
      <use xlink:href="#DejaVuSans-2b" transform="translate(506.957031 0)"/>
      <use xlink:href="#DejaVuSans-20" transform="translate(590.746094 0)"/>
      <use xlink:href="#DejaVuSans-70" transform="translate(622.533203 0)"/>
      <use xlink:href="#DejaVuSans-72" transform="translate(686.009766 0)"/>
      <use xlink:href="#DejaVuSans-6f" transform="translate(724.873047 0)"/>
      <use xlink:href="#DejaVuSans-73" transform="translate(786.054688 0)"/>
      <use xlink:href="#DejaVuSans-70" transform="translate(838.154297 0)"/>
      <use xlink:href="#DejaVuSans-65" transform="translate(901.630859 0)"/>
      <use xlink:href="#DejaVuSans-63" transform="translate(963.154297 0)"/>
      <use xlink:href="#DejaVuSans-74" transform="translate(1018.134766 0)"/>
      <use xlink:href="#DejaVuSans-69" transform="translate(1057.34375 0)"/>
      <use xlink:href="#DejaVuSans-76" transform="translate(1085.126953 0)"/>
      <use xlink:href="#DejaVuSans-65" transform="translate(1144.306641 0)"/>
      <use xlink:href="#DejaVuSans-2c" transform="translate(1205.830078 0)"/>
      <use xlink:href="#DejaVuSans-20" transform="translate(1237.617188 0)"/>
      <use xlink:href="#DejaVuSans-66" transform="translate(1269.404297 0)"/>
      <use xlink:href="#DejaVuSans-69" transform="translate(1304.609375 0)"/>
      <use xlink:href="#DejaVuSans-78" transform="translate(1332.392578 0)"/>
      <use xlink:href="#DejaVuSans-65" transform="translate(1388.447266 0)"/>
      <use xlink:href="#DejaVuSans-64" transform="translate(1449.970703 0)"/>
      <use xlink:href="#DejaVuSans-20" transform="translate(1513.447266 0)"/>
      <use xlink:href="#DejaVuSans-64" transform="translate(1545.234375 0)"/>
      <use xlink:href="#DejaVuSans-69" transform="translate(1608.710938 0)"/>
      <use xlink:href="#DejaVuSans-73" transform="translate(1636.494141 0)"/>
      <use xlink:href="#DejaVuSans-63" transform="translate(1688.59375 0)"/>
      <use xlink:href="#DejaVuSans-6f" transform="translate(1743.574219 0)"/>
      <use xlink:href="#DejaVuSans-75" transform="translate(1804.755859 0)"/>
      <use xlink:href="#DejaVuSans-6e" transform="translate(1868.134766 0)"/>
      <use xlink:href="#DejaVuSans-74" transform="translate(1931.513672 0)"/>
     </g>
    </g>
   </g>
  </g>
  <g id="axes_2">
   <g id="patch_8">
    <path d="M 380.068125 275.992 
L 702.947051 275.992 
L 702.947051 83.76 
L 380.068125 83.76 
z
" style="fill: #ffffff"/>
   </g>
   <g id="matplotlib.axis_3">
    <g id="xtick_5">
     <g id="line2d_29">
      <path d="M 394.74444 275.992 
L 394.74444 83.76 
" clip-path="url(#p14a4640d84)" style="fill: none; stroke: #b0b0b0; stroke-opacity: 0.25; stroke-width: 0.8; stroke-linecap: square"/>
     </g>
     <g id="line2d_30">
      <g>
       <use xlink:href="#md9f5f2eb2e" x="394.74444" y="275.992" style="stroke: #000000; stroke-width: 0.8"/>
      </g>
     </g>
     <g id="text_18">
      <!-- &lt;0.05 -->
      <g transform="translate(380.954049 289.830594) scale(0.09 -0.09)">
       <use xlink:href="#DejaVuSans-3c"/>
       <use xlink:href="#DejaVuSans-30" transform="translate(83.789062 0)"/>
       <use xlink:href="#DejaVuSans-2e" transform="translate(147.412109 0)"/>
       <use xlink:href="#DejaVuSans-30" transform="translate(179.199219 0)"/>
       <use xlink:href="#DejaVuSans-35" transform="translate(242.822266 0)"/>
      </g>
     </g>
    </g>
    <g id="xtick_6">
     <g id="line2d_31">
      <path d="M 492.586538 275.992 
L 492.586538 83.76 
" clip-path="url(#p14a4640d84)" style="fill: none; stroke: #b0b0b0; stroke-opacity: 0.25; stroke-width: 0.8; stroke-linecap: square"/>
     </g>
     <g id="line2d_32">
      <g>
       <use xlink:href="#md9f5f2eb2e" x="492.586538" y="275.992" style="stroke: #000000; stroke-width: 0.8"/>
      </g>
     </g>
     <g id="text_19">
      <!-- 0.05-0.10 -->
      <g transform="translate(470.92396 289.830594) scale(0.09 -0.09)">
       <use xlink:href="#DejaVuSans-30"/>
       <use xlink:href="#DejaVuSans-2e" transform="translate(63.623047 0)"/>
       <use xlink:href="#DejaVuSans-30" transform="translate(95.410156 0)"/>
       <use xlink:href="#DejaVuSans-35" transform="translate(159.033203 0)"/>
       <use xlink:href="#DejaVuSans-2d" transform="translate(222.65625 0)"/>
       <use xlink:href="#DejaVuSans-30" transform="translate(258.740234 0)"/>
       <use xlink:href="#DejaVuSans-2e" transform="translate(322.363281 0)"/>
       <use xlink:href="#DejaVuSans-31" transform="translate(354.150391 0)"/>
       <use xlink:href="#DejaVuSans-30" transform="translate(417.773438 0)"/>
      </g>
     </g>
    </g>
    <g id="xtick_7">
     <g id="line2d_33">
      <path d="M 590.428637 275.992 
L 590.428637 83.76 
" clip-path="url(#p14a4640d84)" style="fill: none; stroke: #b0b0b0; stroke-opacity: 0.25; stroke-width: 0.8; stroke-linecap: square"/>
     </g>
     <g id="line2d_34">
      <g>
       <use xlink:href="#md9f5f2eb2e" x="590.428637" y="275.992" style="stroke: #000000; stroke-width: 0.8"/>
      </g>
     </g>
     <g id="text_20">
      <!-- 0.10-0.20 -->
      <g transform="translate(568.766059 289.830594) scale(0.09 -0.09)">
       <use xlink:href="#DejaVuSans-30"/>
       <use xlink:href="#DejaVuSans-2e" transform="translate(63.623047 0)"/>
       <use xlink:href="#DejaVuSans-31" transform="translate(95.410156 0)"/>
       <use xlink:href="#DejaVuSans-30" transform="translate(159.033203 0)"/>
       <use xlink:href="#DejaVuSans-2d" transform="translate(222.65625 0)"/>
       <use xlink:href="#DejaVuSans-30" transform="translate(258.740234 0)"/>
       <use xlink:href="#DejaVuSans-2e" transform="translate(322.363281 0)"/>
       <use xlink:href="#DejaVuSans-32" transform="translate(354.150391 0)"/>
       <use xlink:href="#DejaVuSans-30" transform="translate(417.773438 0)"/>
      </g>
     </g>
    </g>
    <g id="xtick_8">
     <g id="line2d_35">
      <path d="M 688.270736 275.992 
L 688.270736 83.76 
" clip-path="url(#p14a4640d84)" style="fill: none; stroke: #b0b0b0; stroke-opacity: 0.25; stroke-width: 0.8; stroke-linecap: square"/>
     </g>
     <g id="line2d_36">
      <g>
       <use xlink:href="#md9f5f2eb2e" x="688.270736" y="275.992" style="stroke: #000000; stroke-width: 0.8"/>
      </g>
     </g>
     <g id="text_21">
      <!-- &gt;0.20 -->
      <g transform="translate(674.480345 289.830594) scale(0.09 -0.09)">
       <use xlink:href="#DejaVuSans-3e"/>
       <use xlink:href="#DejaVuSans-30" transform="translate(83.789062 0)"/>
       <use xlink:href="#DejaVuSans-2e" transform="translate(147.412109 0)"/>
       <use xlink:href="#DejaVuSans-32" transform="translate(179.199219 0)"/>
       <use xlink:href="#DejaVuSans-30" transform="translate(242.822266 0)"/>
      </g>
     </g>
    </g>
    <g id="text_22">
     <!-- True $|\theta_k-\theta_0|$ -->
     <g transform="translate(508.407588 303.402312) scale(0.1 -0.1)">
      <use xlink:href="#DejaVuSans-54" transform="translate(0 0.234375)"/>
      <use xlink:href="#DejaVuSans-72" transform="translate(61.083984 0.234375)"/>
      <use xlink:href="#DejaVuSans-75" transform="translate(102.197266 0.234375)"/>
      <use xlink:href="#DejaVuSans-65" transform="translate(165.576172 0.234375)"/>
      <use xlink:href="#DejaVuSans-20" transform="translate(227.099609 0.234375)"/>
      <use xlink:href="#DejaVuSans-7c" transform="translate(258.886719 0.234375)"/>
      <use xlink:href="#DejaVuSans-Oblique-3b8" transform="translate(292.578125 0.234375)"/>
      <use xlink:href="#DejaVuSans-Oblique-6b" transform="translate(353.759766 -16.171875) scale(0.7)"/>
      <use xlink:href="#DejaVuSans-2212" transform="translate(416.513672 0.234375)"/>
      <use xlink:href="#DejaVuSans-Oblique-3b8" transform="translate(519.785156 0.234375)"/>
      <use xlink:href="#DejaVuSans-30" transform="translate(580.966797 -16.171875) scale(0.7)"/>
      <use xlink:href="#DejaVuSans-7c" transform="translate(628.237305 0.234375)"/>
     </g>
    </g>
   </g>
   <g id="matplotlib.axis_4">
    <g id="ytick_8">
     <g id="line2d_37">
      <path d="M 380.068125 268.679875 
L 702.947051 268.679875 
" clip-path="url(#p14a4640d84)" style="fill: none; stroke: #b0b0b0; stroke-opacity: 0.25; stroke-width: 0.8; stroke-linecap: square"/>
     </g>
     <g id="line2d_38">
      <g>
       <use xlink:href="#mb14cbf2e5f" x="380.068125" y="268.679875" style="stroke: #000000; stroke-width: 0.8"/>
      </g>
     </g>
    </g>
    <g id="ytick_9">
     <g id="line2d_39">
      <path d="M 380.068125 238.721704 
L 702.947051 238.721704 
" clip-path="url(#p14a4640d84)" style="fill: none; stroke: #b0b0b0; stroke-opacity: 0.25; stroke-width: 0.8; stroke-linecap: square"/>
     </g>
     <g id="line2d_40">
      <g>
       <use xlink:href="#mb14cbf2e5f" x="380.068125" y="238.721704" style="stroke: #000000; stroke-width: 0.8"/>
      </g>
     </g>
    </g>
    <g id="ytick_10">
     <g id="line2d_41">
      <path d="M 380.068125 208.763532 
L 702.947051 208.763532 
" clip-path="url(#p14a4640d84)" style="fill: none; stroke: #b0b0b0; stroke-opacity: 0.25; stroke-width: 0.8; stroke-linecap: square"/>
     </g>
     <g id="line2d_42">
      <g>
       <use xlink:href="#mb14cbf2e5f" x="380.068125" y="208.763532" style="stroke: #000000; stroke-width: 0.8"/>
      </g>
     </g>
    </g>
    <g id="ytick_11">
     <g id="line2d_43">
      <path d="M 380.068125 178.80536 
L 702.947051 178.80536 
" clip-path="url(#p14a4640d84)" style="fill: none; stroke: #b0b0b0; stroke-opacity: 0.25; stroke-width: 0.8; stroke-linecap: square"/>
     </g>
     <g id="line2d_44">
      <g>
       <use xlink:href="#mb14cbf2e5f" x="380.068125" y="178.80536" style="stroke: #000000; stroke-width: 0.8"/>
      </g>
     </g>
    </g>
    <g id="ytick_12">
     <g id="line2d_45">
      <path d="M 380.068125 148.847189 
L 702.947051 148.847189 
" clip-path="url(#p14a4640d84)" style="fill: none; stroke: #b0b0b0; stroke-opacity: 0.25; stroke-width: 0.8; stroke-linecap: square"/>
     </g>
     <g id="line2d_46">
      <g>
       <use xlink:href="#mb14cbf2e5f" x="380.068125" y="148.847189" style="stroke: #000000; stroke-width: 0.8"/>
      </g>
     </g>
    </g>
    <g id="ytick_13">
     <g id="line2d_47">
      <path d="M 380.068125 118.889017 
L 702.947051 118.889017 
" clip-path="url(#p14a4640d84)" style="fill: none; stroke: #b0b0b0; stroke-opacity: 0.25; stroke-width: 0.8; stroke-linecap: square"/>
     </g>
     <g id="line2d_48">
      <g>
       <use xlink:href="#mb14cbf2e5f" x="380.068125" y="118.889017" style="stroke: #000000; stroke-width: 0.8"/>
      </g>
     </g>
    </g>
    <g id="ytick_14">
     <g id="line2d_49">
      <path d="M 380.068125 88.930846 
L 702.947051 88.930846 
" clip-path="url(#p14a4640d84)" style="fill: none; stroke: #b0b0b0; stroke-opacity: 0.25; stroke-width: 0.8; stroke-linecap: square"/>
     </g>
     <g id="line2d_50">
      <g>
       <use xlink:href="#mb14cbf2e5f" x="380.068125" y="88.930846" style="stroke: #000000; stroke-width: 0.8"/>
      </g>
     </g>
    </g>
   </g>
   <g id="line2d_51">
    <path d="M 394.74444 96.23818 
L 492.586538 92.497818 
L 590.428637 97.280586 
L 688.270736 97.756035 
" clip-path="url(#p14a4640d84)" style="fill: none; stroke-dasharray: 7.4,3.2; stroke-dashoffset: 0; stroke: #999999; stroke-width: 2"/>
    <g clip-path="url(#p14a4640d84)">
     <use xlink:href="#m26d7d9d000" x="394.74444" y="96.23818" style="fill: #999999; stroke: #999999"/>
     <use xlink:href="#m26d7d9d000" x="492.586538" y="92.497818" style="fill: #999999; stroke: #999999"/>
     <use xlink:href="#m26d7d9d000" x="590.428637" y="97.280586" style="fill: #999999; stroke: #999999"/>
     <use xlink:href="#m26d7d9d000" x="688.270736" y="97.756035" style="fill: #999999; stroke: #999999"/>
    </g>
   </g>
   <g id="line2d_52">
    <path d="M 394.74444 153.871944 
L 492.586538 166.915655 
L 590.428637 190.068119 
L 688.270736 208.208054 
" clip-path="url(#p14a4640d84)" style="fill: none; stroke: #1f4e79; stroke-width: 2; stroke-linecap: square"/>
    <g clip-path="url(#p14a4640d84)">
     <use xlink:href="#m036aea5ee4" x="394.74444" y="153.871944" style="fill: #1f4e79; stroke: #1f4e79; stroke-linejoin: miter"/>
     <use xlink:href="#m036aea5ee4" x="492.586538" y="166.915655" style="fill: #1f4e79; stroke: #1f4e79; stroke-linejoin: miter"/>
     <use xlink:href="#m036aea5ee4" x="590.428637" y="190.068119" style="fill: #1f4e79; stroke: #1f4e79; stroke-linejoin: miter"/>
     <use xlink:href="#m036aea5ee4" x="688.270736" y="208.208054" style="fill: #1f4e79; stroke: #1f4e79; stroke-linejoin: miter"/>
    </g>
   </g>
   <g id="line2d_53">
    <path d="M 394.74444 266.734757 
L 492.586538 265.422257 
L 590.428637 267.089505 
L 688.270736 267.254182 
" clip-path="url(#p14a4640d84)" style="fill: none; stroke-dasharray: 2,3.3; stroke-dashoffset: 0; stroke: #c0504d; stroke-width: 2"/>
    <g clip-path="url(#p14a4640d84)">
     <use xlink:href="#maa42e12412" x="394.74444" y="266.734757" style="fill: #c0504d; stroke: #c0504d; stroke-linejoin: miter"/>
     <use xlink:href="#maa42e12412" x="492.586538" y="265.422257" style="fill: #c0504d; stroke: #c0504d; stroke-linejoin: miter"/>
     <use xlink:href="#maa42e12412" x="590.428637" y="267.089505" style="fill: #c0504d; stroke: #c0504d; stroke-linejoin: miter"/>
     <use xlink:href="#maa42e12412" x="688.270736" y="267.254182" style="fill: #c0504d; stroke: #c0504d; stroke-linejoin: miter"/>
    </g>
   </g>
   <g id="patch_9">
    <path d="M 380.068125 275.992 
L 380.068125 83.76 
" style="fill: none; stroke: #000000; stroke-width: 0.8; stroke-linejoin: miter; stroke-linecap: square"/>
   </g>
   <g id="patch_10">
    <path d="M 702.947051 275.992 
L 702.947051 83.76 
" style="fill: none; stroke: #000000; stroke-width: 0.8; stroke-linejoin: miter; stroke-linecap: square"/>
   </g>
   <g id="patch_11">
    <path d="M 380.068125 275.992 
L 702.947051 275.992 
" style="fill: none; stroke: #000000; stroke-width: 0.8; stroke-linejoin: miter; stroke-linecap: square"/>
   </g>
   <g id="patch_12">
    <path d="M 380.068125 83.76 
L 702.947051 83.76 
" style="fill: none; stroke: #000000; stroke-width: 0.8; stroke-linejoin: miter; stroke-linecap: square"/>
   </g>
   <g id="text_23">
    <!-- S2 trap heavy -->
    <g transform="translate(506.491963 77.76) scale(0.1 -0.1)">
     <defs>
      <path id="DejaVuSans-79" d="M 2059 -325 
Q 1816 -950 1584 -1140 
Q 1353 -1331 966 -1331 
L 506 -1331 
L 506 -850 
L 844 -850 
Q 1081 -850 1212 -737 
Q 1344 -625 1503 -206 
L 1606 56 
L 191 3500 
L 800 3500 
L 1894 763 
L 2988 3500 
L 3597 3500 
L 2059 -325 
z
" transform="scale(0.015625)"/>
     </defs>
     <use xlink:href="#DejaVuSans-53"/>
     <use xlink:href="#DejaVuSans-32" transform="translate(63.476562 0)"/>
     <use xlink:href="#DejaVuSans-20" transform="translate(127.099609 0)"/>
     <use xlink:href="#DejaVuSans-74" transform="translate(158.886719 0)"/>
     <use xlink:href="#DejaVuSans-72" transform="translate(198.095703 0)"/>
     <use xlink:href="#DejaVuSans-61" transform="translate(239.208984 0)"/>
     <use xlink:href="#DejaVuSans-70" transform="translate(300.488281 0)"/>
     <use xlink:href="#DejaVuSans-20" transform="translate(363.964844 0)"/>
     <use xlink:href="#DejaVuSans-68" transform="translate(395.751953 0)"/>
     <use xlink:href="#DejaVuSans-65" transform="translate(459.130859 0)"/>
     <use xlink:href="#DejaVuSans-61" transform="translate(520.654297 0)"/>
     <use xlink:href="#DejaVuSans-76" transform="translate(581.933594 0)"/>
     <use xlink:href="#DejaVuSans-79" transform="translate(641.113281 0)"/>
    </g>
   </g>
  </g>
  <g id="text_24">
   <!-- Does the discount head adapt to true comparability? -->
   <g transform="translate(210.452422 15.558281) scale(0.11 -0.11)">
    <defs>
     <path id="DejaVuSans-44" d="M 1259 4147 
L 1259 519 
L 2022 519 
Q 2988 519 3436 956 
Q 3884 1394 3884 2338 
Q 3884 3275 3436 3711 
Q 2988 4147 2022 4147 
L 1259 4147 
z
M 628 4666 
L 1925 4666 
Q 3281 4666 3915 4102 
Q 4550 3538 4550 2338 
Q 4550 1131 3912 565 
Q 3275 0 1925 0 
L 628 0 
L 628 4666 
z
" transform="scale(0.015625)"/>
     <path id="DejaVuSans-6d" d="M 3328 2828 
Q 3544 3216 3844 3400 
Q 4144 3584 4550 3584 
Q 5097 3584 5394 3201 
Q 5691 2819 5691 2113 
L 5691 0 
L 5113 0 
L 5113 2094 
Q 5113 2597 4934 2840 
Q 4756 3084 4391 3084 
Q 3944 3084 3684 2787 
Q 3425 2491 3425 1978 
L 3425 0 
L 2847 0 
L 2847 2094 
Q 2847 2600 2669 2842 
Q 2491 3084 2119 3084 
Q 1678 3084 1418 2786 
Q 1159 2488 1159 1978 
L 1159 0 
L 581 0 
L 581 3500 
L 1159 3500 
L 1159 2956 
Q 1356 3278 1631 3431 
Q 1906 3584 2284 3584 
Q 2666 3584 2933 3390 
Q 3200 3197 3328 2828 
z
" transform="scale(0.015625)"/>
     <path id="DejaVuSans-3f" d="M 1222 794 
L 1856 794 
L 1856 0 
L 1222 0 
L 1222 794 
z
M 1838 1253 
L 1241 1253 
L 1241 1734 
Q 1241 2050 1328 2253 
Q 1416 2456 1697 2725 
L 1978 3003 
Q 2156 3169 2236 3316 
Q 2316 3463 2316 3616 
Q 2316 3894 2111 4066 
Q 1906 4238 1569 4238 
Q 1322 4238 1042 4128 
Q 763 4019 459 3809 
L 459 4397 
Q 753 4575 1054 4662 
Q 1356 4750 1678 4750 
Q 2253 4750 2601 4447 
Q 2950 4144 2950 3647 
Q 2950 3409 2837 3195 
Q 2725 2981 2444 2713 
L 2169 2444 
Q 2022 2297 1961 2214 
Q 1900 2131 1875 2053 
Q 1856 1988 1847 1894 
Q 1838 1800 1838 1638 
L 1838 1253 
z
" transform="scale(0.015625)"/>
    </defs>
    <use xlink:href="#DejaVuSans-44"/>
    <use xlink:href="#DejaVuSans-6f" transform="translate(77.001953 0)"/>
    <use xlink:href="#DejaVuSans-65" transform="translate(138.183594 0)"/>
    <use xlink:href="#DejaVuSans-73" transform="translate(199.707031 0)"/>
    <use xlink:href="#DejaVuSans-20" transform="translate(251.806641 0)"/>
    <use xlink:href="#DejaVuSans-74" transform="translate(283.59375 0)"/>
    <use xlink:href="#DejaVuSans-68" transform="translate(322.802734 0)"/>
    <use xlink:href="#DejaVuSans-65" transform="translate(386.181641 0)"/>
    <use xlink:href="#DejaVuSans-20" transform="translate(447.705078 0)"/>
    <use xlink:href="#DejaVuSans-64" transform="translate(479.492188 0)"/>
    <use xlink:href="#DejaVuSans-69" transform="translate(542.96875 0)"/>
    <use xlink:href="#DejaVuSans-73" transform="translate(570.751953 0)"/>
    <use xlink:href="#DejaVuSans-63" transform="translate(622.851562 0)"/>
    <use xlink:href="#DejaVuSans-6f" transform="translate(677.832031 0)"/>
    <use xlink:href="#DejaVuSans-75" transform="translate(739.013672 0)"/>
    <use xlink:href="#DejaVuSans-6e" transform="translate(802.392578 0)"/>
    <use xlink:href="#DejaVuSans-74" transform="translate(865.771484 0)"/>
    <use xlink:href="#DejaVuSans-20" transform="translate(904.980469 0)"/>
    <use xlink:href="#DejaVuSans-68" transform="translate(936.767578 0)"/>
    <use xlink:href="#DejaVuSans-65" transform="translate(1000.146484 0)"/>
    <use xlink:href="#DejaVuSans-61" transform="translate(1061.669922 0)"/>
    <use xlink:href="#DejaVuSans-64" transform="translate(1122.949219 0)"/>
    <use xlink:href="#DejaVuSans-20" transform="translate(1186.425781 0)"/>
    <use xlink:href="#DejaVuSans-61" transform="translate(1218.212891 0)"/>
    <use xlink:href="#DejaVuSans-64" transform="translate(1279.492188 0)"/>
    <use xlink:href="#DejaVuSans-61" transform="translate(1342.96875 0)"/>
    <use xlink:href="#DejaVuSans-70" transform="translate(1404.248047 0)"/>
    <use xlink:href="#DejaVuSans-74" transform="translate(1467.724609 0)"/>
    <use xlink:href="#DejaVuSans-20" transform="translate(1506.933594 0)"/>
    <use xlink:href="#DejaVuSans-74" transform="translate(1538.720703 0)"/>
    <use xlink:href="#DejaVuSans-6f" transform="translate(1577.929688 0)"/>
    <use xlink:href="#DejaVuSans-20" transform="translate(1639.111328 0)"/>
    <use xlink:href="#DejaVuSans-74" transform="translate(1670.898438 0)"/>
    <use xlink:href="#DejaVuSans-72" transform="translate(1710.107422 0)"/>
    <use xlink:href="#DejaVuSans-75" transform="translate(1751.220703 0)"/>
    <use xlink:href="#DejaVuSans-65" transform="translate(1814.599609 0)"/>
    <use xlink:href="#DejaVuSans-20" transform="translate(1876.123047 0)"/>
    <use xlink:href="#DejaVuSans-63" transform="translate(1907.910156 0)"/>
    <use xlink:href="#DejaVuSans-6f" transform="translate(1962.890625 0)"/>
    <use xlink:href="#DejaVuSans-6d" transform="translate(2024.072266 0)"/>
    <use xlink:href="#DejaVuSans-70" transform="translate(2121.484375 0)"/>
    <use xlink:href="#DejaVuSans-61" transform="translate(2184.960938 0)"/>
    <use xlink:href="#DejaVuSans-72" transform="translate(2246.240234 0)"/>
    <use xlink:href="#DejaVuSans-61" transform="translate(2287.353516 0)"/>
    <use xlink:href="#DejaVuSans-62" transform="translate(2348.632812 0)"/>
    <use xlink:href="#DejaVuSans-69" transform="translate(2412.109375 0)"/>
    <use xlink:href="#DejaVuSans-6c" transform="translate(2439.892578 0)"/>
    <use xlink:href="#DejaVuSans-69" transform="translate(2467.675781 0)"/>
    <use xlink:href="#DejaVuSans-74" transform="translate(2495.458984 0)"/>
    <use xlink:href="#DejaVuSans-79" transform="translate(2534.667969 0)"/>
    <use xlink:href="#DejaVuSans-3f" transform="translate(2593.847656 0)"/>
   </g>
   <!-- Flat = inert. Only the variant given the prospective set-level conflict signal responds. -->
   <g transform="translate(121.742578 27.875875) scale(0.11 -0.11)">
    <defs>
     <path id="DejaVuSans-46" d="M 628 4666 
L 3309 4666 
L 3309 4134 
L 1259 4134 
L 1259 2759 
L 3109 2759 
L 3109 2228 
L 1259 2228 
L 1259 0 
L 628 0 
L 628 4666 
z
" transform="scale(0.015625)"/>
     <path id="DejaVuSans-3d" d="M 678 2906 
L 4684 2906 
L 4684 2381 
L 678 2381 
L 678 2906 
z
M 678 1631 
L 4684 1631 
L 4684 1100 
L 678 1100 
L 678 1631 
z
" transform="scale(0.015625)"/>
     <path id="DejaVuSans-4f" d="M 2522 4238 
Q 1834 4238 1429 3725 
Q 1025 3213 1025 2328 
Q 1025 1447 1429 934 
Q 1834 422 2522 422 
Q 3209 422 3611 934 
Q 4013 1447 4013 2328 
Q 4013 3213 3611 3725 
Q 3209 4238 2522 4238 
z
M 2522 4750 
Q 3503 4750 4090 4092 
Q 4678 3434 4678 2328 
Q 4678 1225 4090 567 
Q 3503 -91 2522 -91 
Q 1538 -91 948 565 
Q 359 1222 359 2328 
Q 359 3434 948 4092 
Q 1538 4750 2522 4750 
z
" transform="scale(0.015625)"/>
    </defs>
    <use xlink:href="#DejaVuSans-46"/>
    <use xlink:href="#DejaVuSans-6c" transform="translate(57.519531 0)"/>
    <use xlink:href="#DejaVuSans-61" transform="translate(85.302734 0)"/>
    <use xlink:href="#DejaVuSans-74" transform="translate(146.582031 0)"/>
    <use xlink:href="#DejaVuSans-20" transform="translate(185.791016 0)"/>
    <use xlink:href="#DejaVuSans-3d" transform="translate(217.578125 0)"/>
    <use xlink:href="#DejaVuSans-20" transform="translate(301.367188 0)"/>
    <use xlink:href="#DejaVuSans-69" transform="translate(333.154297 0)"/>
    <use xlink:href="#DejaVuSans-6e" transform="translate(360.9375 0)"/>
    <use xlink:href="#DejaVuSans-65" transform="translate(424.316406 0)"/>
    <use xlink:href="#DejaVuSans-72" transform="translate(485.839844 0)"/>
    <use xlink:href="#DejaVuSans-74" transform="translate(526.953125 0)"/>
    <use xlink:href="#DejaVuSans-2e" transform="translate(566.162109 0)"/>
    <use xlink:href="#DejaVuSans-20" transform="translate(597.949219 0)"/>
    <use xlink:href="#DejaVuSans-4f" transform="translate(629.736328 0)"/>
    <use xlink:href="#DejaVuSans-6e" transform="translate(708.447266 0)"/>
    <use xlink:href="#DejaVuSans-6c" transform="translate(771.826172 0)"/>
    <use xlink:href="#DejaVuSans-79" transform="translate(799.609375 0)"/>
    <use xlink:href="#DejaVuSans-20" transform="translate(858.789062 0)"/>
    <use xlink:href="#DejaVuSans-74" transform="translate(890.576172 0)"/>
    <use xlink:href="#DejaVuSans-68" transform="translate(929.785156 0)"/>
    <use xlink:href="#DejaVuSans-65" transform="translate(993.164062 0)"/>
    <use xlink:href="#DejaVuSans-20" transform="translate(1054.6875 0)"/>
    <use xlink:href="#DejaVuSans-76" transform="translate(1086.474609 0)"/>
    <use xlink:href="#DejaVuSans-61" transform="translate(1145.654297 0)"/>
    <use xlink:href="#DejaVuSans-72" transform="translate(1206.933594 0)"/>
    <use xlink:href="#DejaVuSans-69" transform="translate(1248.046875 0)"/>
    <use xlink:href="#DejaVuSans-61" transform="translate(1275.830078 0)"/>
    <use xlink:href="#DejaVuSans-6e" transform="translate(1337.109375 0)"/>
    <use xlink:href="#DejaVuSans-74" transform="translate(1400.488281 0)"/>
    <use xlink:href="#DejaVuSans-20" transform="translate(1439.697266 0)"/>
    <use xlink:href="#DejaVuSans-67" transform="translate(1471.484375 0)"/>
    <use xlink:href="#DejaVuSans-69" transform="translate(1534.960938 0)"/>
    <use xlink:href="#DejaVuSans-76" transform="translate(1562.744141 0)"/>
    <use xlink:href="#DejaVuSans-65" transform="translate(1621.923828 0)"/>
    <use xlink:href="#DejaVuSans-6e" transform="translate(1683.447266 0)"/>
    <use xlink:href="#DejaVuSans-20" transform="translate(1746.826172 0)"/>
    <use xlink:href="#DejaVuSans-74" transform="translate(1778.613281 0)"/>
    <use xlink:href="#DejaVuSans-68" transform="translate(1817.822266 0)"/>
    <use xlink:href="#DejaVuSans-65" transform="translate(1881.201172 0)"/>
    <use xlink:href="#DejaVuSans-20" transform="translate(1942.724609 0)"/>
    <use xlink:href="#DejaVuSans-70" transform="translate(1974.511719 0)"/>
    <use xlink:href="#DejaVuSans-72" transform="translate(2037.988281 0)"/>
    <use xlink:href="#DejaVuSans-6f" transform="translate(2076.851562 0)"/>
    <use xlink:href="#DejaVuSans-73" transform="translate(2138.033203 0)"/>
    <use xlink:href="#DejaVuSans-70" transform="translate(2190.132812 0)"/>
    <use xlink:href="#DejaVuSans-65" transform="translate(2253.609375 0)"/>
    <use xlink:href="#DejaVuSans-63" transform="translate(2315.132812 0)"/>
    <use xlink:href="#DejaVuSans-74" transform="translate(2370.113281 0)"/>
    <use xlink:href="#DejaVuSans-69" transform="translate(2409.322266 0)"/>
    <use xlink:href="#DejaVuSans-76" transform="translate(2437.105469 0)"/>
    <use xlink:href="#DejaVuSans-65" transform="translate(2496.285156 0)"/>
    <use xlink:href="#DejaVuSans-20" transform="translate(2557.808594 0)"/>
    <use xlink:href="#DejaVuSans-73" transform="translate(2589.595703 0)"/>
    <use xlink:href="#DejaVuSans-65" transform="translate(2641.695312 0)"/>
    <use xlink:href="#DejaVuSans-74" transform="translate(2703.21875 0)"/>
    <use xlink:href="#DejaVuSans-2d" transform="translate(2742.427734 0)"/>
    <use xlink:href="#DejaVuSans-6c" transform="translate(2778.511719 0)"/>
    <use xlink:href="#DejaVuSans-65" transform="translate(2806.294922 0)"/>
    <use xlink:href="#DejaVuSans-76" transform="translate(2867.818359 0)"/>
    <use xlink:href="#DejaVuSans-65" transform="translate(2926.998047 0)"/>
    <use xlink:href="#DejaVuSans-6c" transform="translate(2988.521484 0)"/>
    <use xlink:href="#DejaVuSans-20" transform="translate(3016.304688 0)"/>
    <use xlink:href="#DejaVuSans-63" transform="translate(3048.091797 0)"/>
    <use xlink:href="#DejaVuSans-6f" transform="translate(3103.072266 0)"/>
    <use xlink:href="#DejaVuSans-6e" transform="translate(3164.253906 0)"/>
    <use xlink:href="#DejaVuSans-66" transform="translate(3227.632812 0)"/>
    <use xlink:href="#DejaVuSans-6c" transform="translate(3262.837891 0)"/>
    <use xlink:href="#DejaVuSans-69" transform="translate(3290.621094 0)"/>
    <use xlink:href="#DejaVuSans-63" transform="translate(3318.404297 0)"/>
    <use xlink:href="#DejaVuSans-74" transform="translate(3373.384766 0)"/>
    <use xlink:href="#DejaVuSans-20" transform="translate(3412.59375 0)"/>
    <use xlink:href="#DejaVuSans-73" transform="translate(3444.380859 0)"/>
    <use xlink:href="#DejaVuSans-69" transform="translate(3496.480469 0)"/>
    <use xlink:href="#DejaVuSans-67" transform="translate(3524.263672 0)"/>
    <use xlink:href="#DejaVuSans-6e" transform="translate(3587.740234 0)"/>
    <use xlink:href="#DejaVuSans-61" transform="translate(3651.119141 0)"/>
    <use xlink:href="#DejaVuSans-6c" transform="translate(3712.398438 0)"/>
    <use xlink:href="#DejaVuSans-20" transform="translate(3740.181641 0)"/>
    <use xlink:href="#DejaVuSans-72" transform="translate(3771.96875 0)"/>
    <use xlink:href="#DejaVuSans-65" transform="translate(3810.832031 0)"/>
    <use xlink:href="#DejaVuSans-73" transform="translate(3872.355469 0)"/>
    <use xlink:href="#DejaVuSans-70" transform="translate(3924.455078 0)"/>
    <use xlink:href="#DejaVuSans-6f" transform="translate(3987.931641 0)"/>
    <use xlink:href="#DejaVuSans-6e" transform="translate(4049.113281 0)"/>
    <use xlink:href="#DejaVuSans-64" transform="translate(4112.492188 0)"/>
    <use xlink:href="#DejaVuSans-73" transform="translate(4175.96875 0)"/>
    <use xlink:href="#DejaVuSans-2e" transform="translate(4228.068359 0)"/>
   </g>
  </g>
 </g>
 <defs>
  <clipPath id="p35bc0362d7">
   <rect x="40.603125" y="83.76" width="322.878926" height="192.232"/>
  </clipPath>
  <clipPath id="p14a4640d84">
   <rect x="380.068125" y="83.76" width="322.878926" height="192.232"/>
  </clipPath>
 </defs>
</svg>
