<?xml version="1.0" encoding="utf-8" standalone="no"?>
<!DOCTYPE svg PUBLIC "-//W3C//DTD SVG 1.1//EN"
  "http://www.w3.org/Graphics/SVG/1.1/DTD/svg11.dtd">
<svg xmlns:xlink="http://www.w3.org/1999/xlink" width="720pt" height="331.2pt" viewBox="0 0 720 331.2" xmlns="http://www.w3.org/2000/svg" version="1.1">
 <metadata>
  <rdf:RDF xmlns:dc="http://purl.org/dc/elements/1.1/" xmlns:cc="http://creativecommons.org/ns#" xmlns:rdf="http://www.w3.org/1999/02/22-rdf-syntax-ns#">
   <cc:Work>
    <dc:type rdf:resource="http://purl.org/dc/dcmitype/StillImage"/>
    <dc:date>2026-07-20T19:37:09.607389</dc:date>
    <dc:format>image/svg+xml</dc:format>
    <dc:creator>
     <cc:Agent>
      <dc:title>Matplotlib v3.10.9, https://matplotlib.org/</dc:title>
     </cc:Agent>
    </dc:creator>
   </cc:Work>
  </rdf:RDF>
 </metadata>
 <defs>
  <style type="text/css">*{stroke-linejoin: round; stroke-linecap: butt}</style>
 </defs>
 <g id="figure_1">
  <g id="patch_1">
   <path d="M 0 331.2 
L 720 331.2 
L 720 0 
L 0 0 
z
" style="fill: #ffffff"/>
  </g>
  <g id="axes_1">
   <g id="patch_2">
    <path d="M 47.72 282.44 
L 709.2 282.44 
L 709.2 36.384 
L 47.72 36.384 
z
" style="fill: #ffffff"/>
   </g>
   <g id="patch_3">
    <path d="M 77.787273 425.972667 
L 97.832121 425.972667 
L 97.832121 164.934149 
L 77.787273 164.934149 
z
" clip-path="url(#pae653a637e)" style="fill: #1f77b4; opacity: 0.8; stroke: #000000; stroke-width: 0.6; stroke-linejoin: miter"/>
   </g>
   <g id="patch_4">
    <path d="M 203.067576 425.972667 
L 223.112424 425.972667 
L 223.112424 199.48257 
L 203.067576 199.48257 
z
" clip-path="url(#pae653a637e)" style="fill: #1f77b4; opacity: 0.8; stroke: #000000; stroke-width: 0.6; stroke-linejoin: miter"/>
   </g>
   <g id="patch_5">
    <path d="M 328.347879 425.972667 
L 348.392727 425.972667 
L 348.392727 176.261254 
L 328.347879 176.261254 
z
" clip-path="url(#pae653a637e)" style="fill: #1f77b4; opacity: 0.8; stroke: #000000; stroke-width: 0.6; stroke-linejoin: miter"/>
   </g>
   <g id="patch_6">
    <path d="M 453.628182 425.972667 
L 473.67303 425.972667 
L 473.67303 237.51544 
L 453.628182 237.51544 
z
" clip-path="url(#pae653a637e)" style="fill: #1f77b4; opacity: 0.8; stroke: #000000; stroke-width: 0.6; stroke-linejoin: miter"/>
   </g>
   <g id="patch_7">
    <path d="M 578.908485 425.972667 
L 598.953333 425.972667 
L 598.953333 209.871086 
L 578.908485 209.871086 
z
" clip-path="url(#pae653a637e)" style="fill: #1f77b4; opacity: 0.8; stroke: #000000; stroke-width: 0.6; stroke-linejoin: miter"/>
   </g>
   <g id="patch_8">
    <path d="M 97.832121 425.972667 
L 117.87697 425.972667 
L 117.87697 156.101284 
L 97.832121 156.101284 
z
" clip-path="url(#pae653a637e)" style="fill: #ff7f0e; opacity: 0.8; stroke: #000000; stroke-width: 0.6; stroke-linejoin: miter"/>
   </g>
   <g id="patch_9">
    <path d="M 223.112424 425.972667 
L 243.157273 425.972667 
L 243.157273 174.661539 
L 223.112424 174.661539 
z
" clip-path="url(#pae653a637e)" style="fill: #ff7f0e; opacity: 0.8; stroke: #000000; stroke-width: 0.6; stroke-linejoin: miter"/>
   </g>
   <g id="patch_10">
    <path d="M 348.392727 425.972667 
L 368.437576 425.972667 
L 368.437576 163.165867 
L 348.392727 163.165867 
z
" clip-path="url(#pae653a637e)" style="fill: #ff7f0e; opacity: 0.8; stroke: #000000; stroke-width: 0.6; stroke-linejoin: miter"/>
   </g>
   <g id="patch_11">
    <path d="M 473.67303 425.972667 
L 493.717879 425.972667 
L 493.717879 243.452859 
L 473.67303 243.452859 
z
" clip-path="url(#pae653a637e)" style="fill: #ff7f0e; opacity: 0.8; stroke: #000000; stroke-width: 0.6; stroke-linejoin: miter"/>
   </g>
   <g id="patch_12">
    <path d="M 598.953333 425.972667 
L 618.998182 425.972667 
L 618.998182 202.262205 
L 598.953333 202.262205 
z
" clip-path="url(#pae653a637e)" style="fill: #ff7f0e; opacity: 0.8; stroke: #000000; stroke-width: 0.6; stroke-linejoin: miter"/>
   </g>
   <g id="patch_13">
    <path d="M 117.87697 425.972667 
L 137.921818 425.972667 
L 137.921818 149.597826 
L 117.87697 149.597826 
z
" clip-path="url(#pae653a637e)" style="fill: #1f4e79; stroke: #000000; stroke-width: 0.6; stroke-linejoin: miter"/>
   </g>
   <g id="patch_14">
    <path d="M 243.157273 425.972667 
L 263.202121 425.972667 
L 263.202121 171.693298 
L 243.157273 171.693298 
z
" clip-path="url(#pae653a637e)" style="fill: #1f4e79; stroke: #000000; stroke-width: 0.6; stroke-linejoin: miter"/>
   </g>
   <g id="patch_15">
    <path d="M 368.437576 425.972667 
L 388.482424 425.972667 
L 388.482424 160.498895 
L 368.437576 160.498895 
z
" clip-path="url(#pae653a637e)" style="fill: #1f4e79; stroke: #000000; stroke-width: 0.6; stroke-linejoin: miter"/>
   </g>
   <g id="patch_16">
    <path d="M 493.717879 425.972667 
L 513.762727 425.972667 
L 513.762727 243.628723 
L 493.717879 243.628723 
z
" clip-path="url(#pae653a637e)" style="fill: #1f4e79; stroke: #000000; stroke-width: 0.6; stroke-linejoin: miter"/>
   </g>
   <g id="patch_17">
    <path d="M 618.998182 425.972667 
L 639.04303 425.972667 
L 639.04303 200.015611 
L 618.998182 200.015611 
z
" clip-path="url(#pae653a637e)" style="fill: #1f4e79; stroke: #000000; stroke-width: 0.6; stroke-linejoin: miter"/>
   </g>
   <g id="patch_18">
    <path d="M 137.921818 425.972667 
L 157.966667 425.972667 
L 157.966667 220.239254 
L 137.921818 220.239254 
z
" clip-path="url(#pae653a637e)" style="fill: #2ca02c; opacity: 0.8; stroke: #000000; stroke-width: 0.6; stroke-linejoin: miter"/>
   </g>
   <g id="patch_19">
    <path d="M 263.202121 425.972667 
L 283.24697 425.972667 
L 283.24697 220.358848 
L 263.202121 220.358848 
z
" clip-path="url(#pae653a637e)" style="fill: #2ca02c; opacity: 0.8; stroke: #000000; stroke-width: 0.6; stroke-linejoin: miter"/>
   </g>
   <g id="patch_20">
    <path d="M 388.482424 425.972667 
L 408.527273 425.972667 
L 408.527273 223.031098 
L 388.482424 223.031098 
z
" clip-path="url(#pae653a637e)" style="fill: #2ca02c; opacity: 0.8; stroke: #000000; stroke-width: 0.6; stroke-linejoin: miter"/>
   </g>
   <g id="patch_21">
    <path d="M 513.762727 425.972667 
L 533.807576 425.972667 
L 533.807576 218.781598 
L 513.762727 218.781598 
z
" clip-path="url(#pae653a637e)" style="fill: #2ca02c; opacity: 0.8; stroke: #000000; stroke-width: 0.6; stroke-linejoin: miter"/>
   </g>
   <g id="patch_22">
    <path d="M 639.04303 425.972667 
L 659.087879 425.972667 
L 659.087879 226.012121 
L 639.04303 226.012121 
z
" clip-path="url(#pae653a637e)" style="fill: #2ca02c; opacity: 0.8; stroke: #000000; stroke-width: 0.6; stroke-linejoin: miter"/>
   </g>
   <g id="patch_23">
    <path d="M 157.966667 425.972667 
L 178.011515 425.972667 
L 178.011515 117.440297 
L 157.966667 117.440297 
z
" clip-path="url(#pae653a637e)" style="fill: #d62728; opacity: 0.8; stroke: #000000; stroke-width: 0.6; stroke-linejoin: miter"/>
   </g>
   <g id="patch_24">
    <path d="M 283.24697 425.972667 
L 303.291818 425.972667 
L 303.291818 87.162616 
L 283.24697 87.162616 
z
" clip-path="url(#pae653a637e)" style="fill: #d62728; opacity: 0.8; stroke: #000000; stroke-width: 0.6; stroke-linejoin: miter"/>
   </g>
   <g id="patch_25">
    <path d="M 408.527273 425.972667 
L 428.572121 425.972667 
L 428.572121 96.775888 
L 408.527273 96.775888 
z
" clip-path="url(#pae653a637e)" style="fill: #d62728; opacity: 0.8; stroke: #000000; stroke-width: 0.6; stroke-linejoin: miter"/>
   </g>
   <g id="patch_26">
    <path d="M 533.807576 425.972667 
L 553.852424 425.972667 
L 553.852424 81.822767 
L 533.807576 81.822767 
z
" clip-path="url(#pae653a637e)" style="fill: #d62728; opacity: 0.8; stroke: #000000; stroke-width: 0.6; stroke-linejoin: miter"/>
   </g>
   <g id="patch_27">
    <path d="M 659.087879 425.972667 
L 679.132727 425.972667 
L 679.132727 86.020696 
L 659.087879 86.020696 
z
" clip-path="url(#pae653a637e)" style="fill: #d62728; opacity: 0.8; stroke: #000000; stroke-width: 0.6; stroke-linejoin: miter"/>
   </g>
   <g id="matplotlib.axis_1">
    <g id="xtick_1">
     <g id="line2d_1">
      <defs>
       <path id="m438094a617" d="M 0 0 
L 0 3.5 
" style="stroke: #000000; stroke-width: 0.8"/>
      </defs>
      <g>
       <use xlink:href="#m438094a617" x="127.899394" y="282.44" style="stroke: #000000; stroke-width: 0.8"/>
      </g>
     </g>
     <g id="text_1">
      <!-- S1 -->
      <g transform="translate(122.179472 296.278594) scale(0.09 -0.09)">
       <defs>
        <path id="DejaVuSans-53" d="M 3425 4513 
L 3425 3897 
Q 3066 4069 2747 4153 
Q 2428 4238 2131 4238 
Q 1616 4238 1336 4038 
Q 1056 3838 1056 3469 
Q 1056 3159 1242 3001 
Q 1428 2844 1947 2747 
L 2328 2669 
Q 3034 2534 3370 2195 
Q 3706 1856 3706 1288 
Q 3706 609 3251 259 
Q 2797 -91 1919 -91 
Q 1588 -91 1214 -16 
Q 841 59 441 206 
L 441 856 
Q 825 641 1194 531 
Q 1563 422 1919 422 
Q 2459 422 2753 634 
Q 3047 847 3047 1241 
Q 3047 1584 2836 1778 
Q 2625 1972 2144 2069 
L 1759 2144 
Q 1053 2284 737 2584 
Q 422 2884 422 3419 
Q 422 4038 858 4394 
Q 1294 4750 2059 4750 
Q 2388 4750 2728 4690 
Q 3069 4631 3425 4513 
z
" transform="scale(0.015625)"/>
        <path id="DejaVuSans-31" d="M 794 531 
L 1825 531 
L 1825 4091 
L 703 3866 
L 703 4441 
L 1819 4666 
L 2450 4666 
L 2450 531 
L 3481 531 
L 3481 0 
L 794 0 
L 794 531 
z
" transform="scale(0.015625)"/>
       </defs>
       <use xlink:href="#DejaVuSans-53"/>
       <use xlink:href="#DejaVuSans-31" transform="translate(63.476562 0)"/>
      </g>
      <!-- exchangeable -->
      <g transform="translate(96.429628 306.356625) scale(0.09 -0.09)">
       <defs>
        <path id="DejaVuSans-65" d="M 3597 1894 
L 3597 1613 
L 953 1613 
Q 991 1019 1311 708 
Q 1631 397 2203 397 
Q 2534 397 2845 478 
Q 3156 559 3463 722 
L 3463 178 
Q 3153 47 2828 -22 
Q 2503 -91 2169 -91 
Q 1331 -91 842 396 
Q 353 884 353 1716 
Q 353 2575 817 3079 
Q 1281 3584 2069 3584 
Q 2775 3584 3186 3129 
Q 3597 2675 3597 1894 
z
M 3022 2063 
Q 3016 2534 2758 2815 
Q 2500 3097 2075 3097 
Q 1594 3097 1305 2825 
Q 1016 2553 972 2059 
L 3022 2063 
z
" transform="scale(0.015625)"/>
        <path id="DejaVuSans-78" d="M 3513 3500 
L 2247 1797 
L 3578 0 
L 2900 0 
L 1881 1375 
L 863 0 
L 184 0 
L 1544 1831 
L 300 3500 
L 978 3500 
L 1906 2253 
L 2834 3500 
L 3513 3500 
z
" transform="scale(0.015625)"/>
        <path id="DejaVuSans-63" d="M 3122 3366 
L 3122 2828 
Q 2878 2963 2633 3030 
Q 2388 3097 2138 3097 
Q 1578 3097 1268 2742 
Q 959 2388 959 1747 
Q 959 1106 1268 751 
Q 1578 397 2138 397 
Q 2388 397 2633 464 
Q 2878 531 3122 666 
L 3122 134 
Q 2881 22 2623 -34 
Q 2366 -91 2075 -91 
Q 1284 -91 818 406 
Q 353 903 353 1747 
Q 353 2603 823 3093 
Q 1294 3584 2113 3584 
Q 2378 3584 2631 3529 
Q 2884 3475 3122 3366 
z
" transform="scale(0.015625)"/>
        <path id="DejaVuSans-68" d="M 3513 2113 
L 3513 0 
L 2938 0 
L 2938 2094 
Q 2938 2591 2744 2837 
Q 2550 3084 2163 3084 
Q 1697 3084 1428 2787 
Q 1159 2491 1159 1978 
L 1159 0 
L 581 0 
L 581 4863 
L 1159 4863 
L 1159 2956 
Q 1366 3272 1645 3428 
Q 1925 3584 2291 3584 
Q 2894 3584 3203 3211 
Q 3513 2838 3513 2113 
z
" transform="scale(0.015625)"/>
        <path id="DejaVuSans-61" d="M 2194 1759 
Q 1497 1759 1228 1600 
Q 959 1441 959 1056 
Q 959 750 1161 570 
Q 1363 391 1709 391 
Q 2188 391 2477 730 
Q 2766 1069 2766 1631 
L 2766 1759 
L 2194 1759 
z
M 3341 1997 
L 3341 0 
L 2766 0 
L 2766 531 
Q 2569 213 2275 61 
Q 1981 -91 1556 -91 
Q 1019 -91 701 211 
Q 384 513 384 1019 
Q 384 1609 779 1909 
Q 1175 2209 1959 2209 
L 2766 2209 
L 2766 2266 
Q 2766 2663 2505 2880 
Q 2244 3097 1772 3097 
Q 1472 3097 1187 3025 
Q 903 2953 641 2809 
L 641 3341 
Q 956 3463 1253 3523 
Q 1550 3584 1831 3584 
Q 2591 3584 2966 3190 
Q 3341 2797 3341 1997 
z
" transform="scale(0.015625)"/>
        <path id="DejaVuSans-6e" d="M 3513 2113 
L 3513 0 
L 2938 0 
L 2938 2094 
Q 2938 2591 2744 2837 
Q 2550 3084 2163 3084 
Q 1697 3084 1428 2787 
Q 1159 2491 1159 1978 
L 1159 0 
L 581 0 
L 581 3500 
L 1159 3500 
L 1159 2956 
Q 1366 3272 1645 3428 
Q 1925 3584 2291 3584 
Q 2894 3584 3203 3211 
Q 3513 2838 3513 2113 
z
" transform="scale(0.015625)"/>
        <path id="DejaVuSans-67" d="M 2906 1791 
Q 2906 2416 2648 2759 
Q 2391 3103 1925 3103 
Q 1463 3103 1205 2759 
Q 947 2416 947 1791 
Q 947 1169 1205 825 
Q 1463 481 1925 481 
Q 2391 481 2648 825 
Q 2906 1169 2906 1791 
z
M 3481 434 
Q 3481 -459 3084 -895 
Q 2688 -1331 1869 -1331 
Q 1566 -1331 1297 -1286 
Q 1028 -1241 775 -1147 
L 775 -588 
Q 1028 -725 1275 -790 
Q 1522 -856 1778 -856 
Q 2344 -856 2625 -561 
Q 2906 -266 2906 331 
L 2906 616 
Q 2728 306 2450 153 
Q 2172 0 1784 0 
Q 1141 0 747 490 
Q 353 981 353 1791 
Q 353 2603 747 3093 
Q 1141 3584 1784 3584 
Q 2172 3584 2450 3431 
Q 2728 3278 2906 2969 
L 2906 3500 
L 3481 3500 
L 3481 434 
z
" transform="scale(0.015625)"/>
        <path id="DejaVuSans-62" d="M 3116 1747 
Q 3116 2381 2855 2742 
Q 2594 3103 2138 3103 
Q 1681 3103 1420 2742 
Q 1159 2381 1159 1747 
Q 1159 1113 1420 752 
Q 1681 391 2138 391 
Q 2594 391 2855 752 
Q 3116 1113 3116 1747 
z
M 1159 2969 
Q 1341 3281 1617 3432 
Q 1894 3584 2278 3584 
Q 2916 3584 3314 3078 
Q 3713 2572 3713 1747 
Q 3713 922 3314 415 
Q 2916 -91 2278 -91 
Q 1894 -91 1617 61 
Q 1341 213 1159 525 
L 1159 0 
L 581 0 
L 581 4863 
L 1159 4863 
L 1159 2969 
z
" transform="scale(0.015625)"/>
        <path id="DejaVuSans-6c" d="M 603 4863 
L 1178 4863 
L 1178 0 
L 603 0 
L 603 4863 
z
" transform="scale(0.015625)"/>
       </defs>
       <use xlink:href="#DejaVuSans-65"/>
       <use xlink:href="#DejaVuSans-78" transform="translate(59.773438 0)"/>
       <use xlink:href="#DejaVuSans-63" transform="translate(117.203125 0)"/>
       <use xlink:href="#DejaVuSans-68" transform="translate(172.183594 0)"/>
       <use xlink:href="#DejaVuSans-61" transform="translate(235.5625 0)"/>
       <use xlink:href="#DejaVuSans-6e" transform="translate(296.841797 0)"/>
       <use xlink:href="#DejaVuSans-67" transform="translate(360.220703 0)"/>
       <use xlink:href="#DejaVuSans-65" transform="translate(423.697266 0)"/>
       <use xlink:href="#DejaVuSans-61" transform="translate(485.220703 0)"/>
       <use xlink:href="#DejaVuSans-62" transform="translate(546.5 0)"/>
       <use xlink:href="#DejaVuSans-6c" transform="translate(609.976562 0)"/>
       <use xlink:href="#DejaVuSans-65" transform="translate(637.759766 0)"/>
      </g>
     </g>
    </g>
    <g id="xtick_2">
     <g id="line2d_2">
      <g>
       <use xlink:href="#m438094a617" x="253.179697" y="282.44" style="stroke: #000000; stroke-width: 0.8"/>
      </g>
     </g>
     <g id="text_2">
      <!-- S2 -->
      <g transform="translate(247.459775 296.278594) scale(0.09 -0.09)">
       <defs>
        <path id="DejaVuSans-32" d="M 1228 531 
L 3431 531 
L 3431 0 
L 469 0 
L 469 531 
Q 828 903 1448 1529 
Q 2069 2156 2228 2338 
Q 2531 2678 2651 2914 
Q 2772 3150 2772 3378 
Q 2772 3750 2511 3984 
Q 2250 4219 1831 4219 
Q 1534 4219 1204 4116 
Q 875 4013 500 3803 
L 500 4441 
Q 881 4594 1212 4672 
Q 1544 4750 1819 4750 
Q 2544 4750 2975 4387 
Q 3406 4025 3406 3419 
Q 3406 3131 3298 2873 
Q 3191 2616 2906 2266 
Q 2828 2175 2409 1742 
Q 1991 1309 1228 531 
z
" transform="scale(0.015625)"/>
       </defs>
       <use xlink:href="#DejaVuSans-53"/>
       <use xlink:href="#DejaVuSans-32" transform="translate(63.476562 0)"/>
      </g>
      <!-- trap -->
      <g transform="translate(243.951181 306.356625) scale(0.09 -0.09)">
       <defs>
        <path id="DejaVuSans-74" d="M 1172 4494 
L 1172 3500 
L 2356 3500 
L 2356 3053 
L 1172 3053 
L 1172 1153 
Q 1172 725 1289 603 
Q 1406 481 1766 481 
L 2356 481 
L 2356 0 
L 1766 0 
Q 1100 0 847 248 
Q 594 497 594 1153 
L 594 3053 
L 172 3053 
L 172 3500 
L 594 3500 
L 594 4494 
L 1172 4494 
z
" transform="scale(0.015625)"/>
        <path id="DejaVuSans-72" d="M 2631 2963 
Q 2534 3019 2420 3045 
Q 2306 3072 2169 3072 
Q 1681 3072 1420 2755 
Q 1159 2438 1159 1844 
L 1159 0 
L 581 0 
L 581 3500 
L 1159 3500 
L 1159 2956 
Q 1341 3275 1631 3429 
Q 1922 3584 2338 3584 
Q 2397 3584 2469 3576 
Q 2541 3569 2628 3553 
L 2631 2963 
z
" transform="scale(0.015625)"/>
        <path id="DejaVuSans-70" d="M 1159 525 
L 1159 -1331 
L 581 -1331 
L 581 3500 
L 1159 3500 
L 1159 2969 
Q 1341 3281 1617 3432 
Q 1894 3584 2278 3584 
Q 2916 3584 3314 3078 
Q 3713 2572 3713 1747 
Q 3713 922 3314 415 
Q 2916 -91 2278 -91 
Q 1894 -91 1617 61 
Q 1341 213 1159 525 
z
M 3116 1747 
Q 3116 2381 2855 2742 
Q 2594 3103 2138 3103 
Q 1681 3103 1420 2742 
Q 1159 2381 1159 1747 
Q 1159 1113 1420 752 
Q 1681 391 2138 391 
Q 2594 391 2855 752 
Q 3116 1113 3116 1747 
z
" transform="scale(0.015625)"/>
       </defs>
       <use xlink:href="#DejaVuSans-74"/>
       <use xlink:href="#DejaVuSans-72" transform="translate(39.208984 0)"/>
       <use xlink:href="#DejaVuSans-61" transform="translate(80.322266 0)"/>
       <use xlink:href="#DejaVuSans-70" transform="translate(141.601562 0)"/>
      </g>
      <!-- heavy -->
      <g transform="translate(239.474384 316.434656) scale(0.09 -0.09)">
       <defs>
        <path id="DejaVuSans-76" d="M 191 3500 
L 800 3500 
L 1894 563 
L 2988 3500 
L 3597 3500 
L 2284 0 
L 1503 0 
L 191 3500 
z
" transform="scale(0.015625)"/>
        <path id="DejaVuSans-79" d="M 2059 -325 
Q 1816 -950 1584 -1140 
Q 1353 -1331 966 -1331 
L 506 -1331 
L 506 -850 
L 844 -850 
Q 1081 -850 1212 -737 
Q 1344 -625 1503 -206 
L 1606 56 
L 191 3500 
L 800 3500 
L 1894 763 
L 2988 3500 
L 3597 3500 
L 2059 -325 
z
" transform="scale(0.015625)"/>
       </defs>
       <use xlink:href="#DejaVuSans-68"/>
       <use xlink:href="#DejaVuSans-65" transform="translate(63.378906 0)"/>
       <use xlink:href="#DejaVuSans-61" transform="translate(124.902344 0)"/>
       <use xlink:href="#DejaVuSans-76" transform="translate(186.181641 0)"/>
       <use xlink:href="#DejaVuSans-79" transform="translate(245.361328 0)"/>
      </g>
     </g>
    </g>
    <g id="xtick_3">
     <g id="line2d_3">
      <g>
       <use xlink:href="#m438094a617" x="378.46" y="282.44" style="stroke: #000000; stroke-width: 0.8"/>
      </g>
     </g>
     <g id="text_3">
      <!-- S3 -->
      <g transform="translate(372.740078 296.278594) scale(0.09 -0.09)">
       <defs>
        <path id="DejaVuSans-33" d="M 2597 2516 
Q 3050 2419 3304 2112 
Q 3559 1806 3559 1356 
Q 3559 666 3084 287 
Q 2609 -91 1734 -91 
Q 1441 -91 1130 -33 
Q 819 25 488 141 
L 488 750 
Q 750 597 1062 519 
Q 1375 441 1716 441 
Q 2309 441 2620 675 
Q 2931 909 2931 1356 
Q 2931 1769 2642 2001 
Q 2353 2234 1838 2234 
L 1294 2234 
L 1294 2753 
L 1863 2753 
Q 2328 2753 2575 2939 
Q 2822 3125 2822 3475 
Q 2822 3834 2567 4026 
Q 2313 4219 1838 4219 
Q 1578 4219 1281 4162 
Q 984 4106 628 3988 
L 628 4550 
Q 988 4650 1302 4700 
Q 1616 4750 1894 4750 
Q 2613 4750 3031 4423 
Q 3450 4097 3450 3541 
Q 3450 3153 3228 2886 
Q 3006 2619 2597 2516 
z
" transform="scale(0.015625)"/>
       </defs>
       <use xlink:href="#DejaVuSans-53"/>
       <use xlink:href="#DejaVuSans-33" transform="translate(63.476562 0)"/>
      </g>
      <!-- hidden -->
      <g transform="translate(363.023594 306.356625) scale(0.09 -0.09)">
       <defs>
        <path id="DejaVuSans-69" d="M 603 3500 
L 1178 3500 
L 1178 0 
L 603 0 
L 603 3500 
z
M 603 4863 
L 1178 4863 
L 1178 4134 
L 603 4134 
L 603 4863 
z
" transform="scale(0.015625)"/>
        <path id="DejaVuSans-64" d="M 2906 2969 
L 2906 4863 
L 3481 4863 
L 3481 0 
L 2906 0 
L 2906 525 
Q 2725 213 2448 61 
Q 2172 -91 1784 -91 
Q 1150 -91 751 415 
Q 353 922 353 1747 
Q 353 2572 751 3078 
Q 1150 3584 1784 3584 
Q 2172 3584 2448 3432 
Q 2725 3281 2906 2969 
z
M 947 1747 
Q 947 1113 1208 752 
Q 1469 391 1925 391 
Q 2381 391 2643 752 
Q 2906 1113 2906 1747 
Q 2906 2381 2643 2742 
Q 2381 3103 1925 3103 
Q 1469 3103 1208 2742 
Q 947 2381 947 1747 
z
" transform="scale(0.015625)"/>
       </defs>
       <use xlink:href="#DejaVuSans-68"/>
       <use xlink:href="#DejaVuSans-69" transform="translate(63.378906 0)"/>
       <use xlink:href="#DejaVuSans-64" transform="translate(91.162109 0)"/>
       <use xlink:href="#DejaVuSans-64" transform="translate(154.638672 0)"/>
       <use xlink:href="#DejaVuSans-65" transform="translate(218.115234 0)"/>
       <use xlink:href="#DejaVuSans-6e" transform="translate(279.638672 0)"/>
      </g>
      <!-- gem -->
      <g transform="translate(368.451016 316.434656) scale(0.09 -0.09)">
       <defs>
        <path id="DejaVuSans-6d" d="M 3328 2828 
Q 3544 3216 3844 3400 
Q 4144 3584 4550 3584 
Q 5097 3584 5394 3201 
Q 5691 2819 5691 2113 
L 5691 0 
L 5113 0 
L 5113 2094 
Q 5113 2597 4934 2840 
Q 4756 3084 4391 3084 
Q 3944 3084 3684 2787 
Q 3425 2491 3425 1978 
L 3425 0 
L 2847 0 
L 2847 2094 
Q 2847 2600 2669 2842 
Q 2491 3084 2119 3084 
Q 1678 3084 1418 2786 
Q 1159 2488 1159 1978 
L 1159 0 
L 581 0 
L 581 3500 
L 1159 3500 
L 1159 2956 
Q 1356 3278 1631 3431 
Q 1906 3584 2284 3584 
Q 2666 3584 2933 3390 
Q 3200 3197 3328 2828 
z
" transform="scale(0.015625)"/>
       </defs>
       <use xlink:href="#DejaVuSans-67"/>
       <use xlink:href="#DejaVuSans-65" transform="translate(63.476562 0)"/>
       <use xlink:href="#DejaVuSans-6d" transform="translate(125 0)"/>
      </g>
     </g>
    </g>
    <g id="xtick_4">
     <g id="line2d_4">
      <g>
       <use xlink:href="#m438094a617" x="503.740303" y="282.44" style="stroke: #000000; stroke-width: 0.8"/>
      </g>
     </g>
     <g id="text_4">
      <!-- S4 -->
      <g transform="translate(498.020381 296.278594) scale(0.09 -0.09)">
       <defs>
        <path id="DejaVuSans-34" d="M 2419 4116 
L 825 1625 
L 2419 1625 
L 2419 4116 
z
M 2253 4666 
L 3047 4666 
L 3047 1625 
L 3713 1625 
L 3713 1100 
L 3047 1100 
L 3047 0 
L 2419 0 
L 2419 1100 
L 313 1100 
L 313 1709 
L 2253 4666 
z
" transform="scale(0.015625)"/>
       </defs>
       <use xlink:href="#DejaVuSans-53"/>
       <use xlink:href="#DejaVuSans-34" transform="translate(63.476562 0)"/>
      </g>
      <!-- conflict -->
      <g transform="translate(487.337803 306.356625) scale(0.09 -0.09)">
       <defs>
        <path id="DejaVuSans-6f" d="M 1959 3097 
Q 1497 3097 1228 2736 
Q 959 2375 959 1747 
Q 959 1119 1226 758 
Q 1494 397 1959 397 
Q 2419 397 2687 759 
Q 2956 1122 2956 1747 
Q 2956 2369 2687 2733 
Q 2419 3097 1959 3097 
z
M 1959 3584 
Q 2709 3584 3137 3096 
Q 3566 2609 3566 1747 
Q 3566 888 3137 398 
Q 2709 -91 1959 -91 
Q 1206 -91 779 398 
Q 353 888 353 1747 
Q 353 2609 779 3096 
Q 1206 3584 1959 3584 
z
" transform="scale(0.015625)"/>
        <path id="DejaVuSans-66" d="M 2375 4863 
L 2375 4384 
L 1825 4384 
Q 1516 4384 1395 4259 
Q 1275 4134 1275 3809 
L 1275 3500 
L 2222 3500 
L 2222 3053 
L 1275 3053 
L 1275 0 
L 697 0 
L 697 3053 
L 147 3053 
L 147 3500 
L 697 3500 
L 697 3744 
Q 697 4328 969 4595 
Q 1241 4863 1831 4863 
L 2375 4863 
z
" transform="scale(0.015625)"/>
       </defs>
       <use xlink:href="#DejaVuSans-63"/>
       <use xlink:href="#DejaVuSans-6f" transform="translate(54.980469 0)"/>
       <use xlink:href="#DejaVuSans-6e" transform="translate(116.162109 0)"/>
       <use xlink:href="#DejaVuSans-66" transform="translate(179.541016 0)"/>
       <use xlink:href="#DejaVuSans-6c" transform="translate(214.746094 0)"/>
       <use xlink:href="#DejaVuSans-69" transform="translate(242.529297 0)"/>
       <use xlink:href="#DejaVuSans-63" transform="translate(270.3125 0)"/>
       <use xlink:href="#DejaVuSans-74" transform="translate(325.292969 0)"/>
      </g>
     </g>
    </g>
    <g id="xtick_5">
     <g id="line2d_5">
      <g>
       <use xlink:href="#m438094a617" x="629.020606" y="282.44" style="stroke: #000000; stroke-width: 0.8"/>
      </g>
     </g>
     <g id="text_5">
      <!-- S5 -->
      <g transform="translate(623.300684 296.278594) scale(0.09 -0.09)">
       <defs>
        <path id="DejaVuSans-35" d="M 691 4666 
L 3169 4666 
L 3169 4134 
L 1269 4134 
L 1269 2991 
Q 1406 3038 1543 3061 
Q 1681 3084 1819 3084 
Q 2600 3084 3056 2656 
Q 3513 2228 3513 1497 
Q 3513 744 3044 326 
Q 2575 -91 1722 -91 
Q 1428 -91 1123 -41 
Q 819 9 494 109 
L 494 744 
Q 775 591 1075 516 
Q 1375 441 1709 441 
Q 2250 441 2565 725 
Q 2881 1009 2881 1497 
Q 2881 1984 2565 2268 
Q 2250 2553 1709 2553 
Q 1456 2553 1204 2497 
Q 953 2441 691 2322 
L 691 4666 
z
" transform="scale(0.015625)"/>
       </defs>
       <use xlink:href="#DejaVuSans-53"/>
       <use xlink:href="#DejaVuSans-35" transform="translate(63.476562 0)"/>
      </g>
      <!-- heterogeneous -->
      <g transform="translate(595.168653 306.356625) scale(0.09 -0.09)">
       <defs>
        <path id="DejaVuSans-75" d="M 544 1381 
L 544 3500 
L 1119 3500 
L 1119 1403 
Q 1119 906 1312 657 
Q 1506 409 1894 409 
Q 2359 409 2629 706 
Q 2900 1003 2900 1516 
L 2900 3500 
L 3475 3500 
L 3475 0 
L 2900 0 
L 2900 538 
Q 2691 219 2414 64 
Q 2138 -91 1772 -91 
Q 1169 -91 856 284 
Q 544 659 544 1381 
z
M 1991 3584 
L 1991 3584 
z
" transform="scale(0.015625)"/>
        <path id="DejaVuSans-73" d="M 2834 3397 
L 2834 2853 
Q 2591 2978 2328 3040 
Q 2066 3103 1784 3103 
Q 1356 3103 1142 2972 
Q 928 2841 928 2578 
Q 928 2378 1081 2264 
Q 1234 2150 1697 2047 
L 1894 2003 
Q 2506 1872 2764 1633 
Q 3022 1394 3022 966 
Q 3022 478 2636 193 
Q 2250 -91 1575 -91 
Q 1294 -91 989 -36 
Q 684 19 347 128 
L 347 722 
Q 666 556 975 473 
Q 1284 391 1588 391 
Q 1994 391 2212 530 
Q 2431 669 2431 922 
Q 2431 1156 2273 1281 
Q 2116 1406 1581 1522 
L 1381 1569 
Q 847 1681 609 1914 
Q 372 2147 372 2553 
Q 372 3047 722 3315 
Q 1072 3584 1716 3584 
Q 2034 3584 2315 3537 
Q 2597 3491 2834 3397 
z
" transform="scale(0.015625)"/>
       </defs>
       <use xlink:href="#DejaVuSans-68"/>
       <use xlink:href="#DejaVuSans-65" transform="translate(63.378906 0)"/>
       <use xlink:href="#DejaVuSans-74" transform="translate(124.902344 0)"/>
       <use xlink:href="#DejaVuSans-65" transform="translate(164.111328 0)"/>
       <use xlink:href="#DejaVuSans-72" transform="translate(225.634766 0)"/>
       <use xlink:href="#DejaVuSans-6f" transform="translate(264.498047 0)"/>
       <use xlink:href="#DejaVuSans-67" transform="translate(325.679688 0)"/>
       <use xlink:href="#DejaVuSans-65" transform="translate(389.15625 0)"/>
       <use xlink:href="#DejaVuSans-6e" transform="translate(450.679688 0)"/>
       <use xlink:href="#DejaVuSans-65" transform="translate(514.058594 0)"/>
       <use xlink:href="#DejaVuSans-6f" transform="translate(575.582031 0)"/>
       <use xlink:href="#DejaVuSans-75" transform="translate(636.763672 0)"/>
       <use xlink:href="#DejaVuSans-73" transform="translate(700.142578 0)"/>
      </g>
     </g>
    </g>
   </g>
   <g id="matplotlib.axis_2">
    <g id="ytick_1">
     <g id="line2d_6">
      <defs>
       <path id="m32a9d5f17a" d="M 0 0 
L -3.5 0 
" style="stroke: #000000; stroke-width: 0.8"/>
      </defs>
      <g>
       <use xlink:href="#m32a9d5f17a" x="47.72" y="261.935333" style="stroke: #000000; stroke-width: 0.8"/>
      </g>
     </g>
     <g id="text_6">
      <!-- 0.4 -->
      <g transform="translate(24.816875 265.734552) scale(0.1 -0.1)">
       <defs>
        <path id="DejaVuSans-30" d="M 2034 4250 
Q 1547 4250 1301 3770 
Q 1056 3291 1056 2328 
Q 1056 1369 1301 889 
Q 1547 409 2034 409 
Q 2525 409 2770 889 
Q 3016 1369 3016 2328 
Q 3016 3291 2770 3770 
Q 2525 4250 2034 4250 
z
M 2034 4750 
Q 2819 4750 3233 4129 
Q 3647 3509 3647 2328 
Q 3647 1150 3233 529 
Q 2819 -91 2034 -91 
Q 1250 -91 836 529 
Q 422 1150 422 2328 
Q 422 3509 836 4129 
Q 1250 4750 2034 4750 
z
" transform="scale(0.015625)"/>
        <path id="DejaVuSans-2e" d="M 684 794 
L 1344 794 
L 1344 0 
L 684 0 
L 684 794 
z
" transform="scale(0.015625)"/>
       </defs>
       <use xlink:href="#DejaVuSans-30"/>
       <use xlink:href="#DejaVuSans-2e" transform="translate(63.623047 0)"/>
       <use xlink:href="#DejaVuSans-34" transform="translate(95.410156 0)"/>
      </g>
     </g>
    </g>
    <g id="ytick_2">
     <g id="line2d_7">
      <g>
       <use xlink:href="#m32a9d5f17a" x="47.72" y="220.926" style="stroke: #000000; stroke-width: 0.8"/>
      </g>
     </g>
     <g id="text_7">
      <!-- 0.5 -->
      <g transform="translate(24.816875 224.725219) scale(0.1 -0.1)">
       <use xlink:href="#DejaVuSans-30"/>
       <use xlink:href="#DejaVuSans-2e" transform="translate(63.623047 0)"/>
       <use xlink:href="#DejaVuSans-35" transform="translate(95.410156 0)"/>
      </g>
     </g>
    </g>
    <g id="ytick_3">
     <g id="line2d_8">
      <g>
       <use xlink:href="#m32a9d5f17a" x="47.72" y="179.916667" style="stroke: #000000; stroke-width: 0.8"/>
      </g>
     </g>
     <g id="text_8">
      <!-- 0.6 -->
      <g transform="translate(24.816875 183.715885) scale(0.1 -0.1)">
       <defs>
        <path id="DejaVuSans-36" d="M 2113 2584 
Q 1688 2584 1439 2293 
Q 1191 2003 1191 1497 
Q 1191 994 1439 701 
Q 1688 409 2113 409 
Q 2538 409 2786 701 
Q 3034 994 3034 1497 
Q 3034 2003 2786 2293 
Q 2538 2584 2113 2584 
z
M 3366 4563 
L 3366 3988 
Q 3128 4100 2886 4159 
Q 2644 4219 2406 4219 
Q 1781 4219 1451 3797 
Q 1122 3375 1075 2522 
Q 1259 2794 1537 2939 
Q 1816 3084 2150 3084 
Q 2853 3084 3261 2657 
Q 3669 2231 3669 1497 
Q 3669 778 3244 343 
Q 2819 -91 2113 -91 
Q 1303 -91 875 529 
Q 447 1150 447 2328 
Q 447 3434 972 4092 
Q 1497 4750 2381 4750 
Q 2619 4750 2861 4703 
Q 3103 4656 3366 4563 
z
" transform="scale(0.015625)"/>
       </defs>
       <use xlink:href="#DejaVuSans-30"/>
       <use xlink:href="#DejaVuSans-2e" transform="translate(63.623047 0)"/>
       <use xlink:href="#DejaVuSans-36" transform="translate(95.410156 0)"/>
      </g>
     </g>
    </g>
    <g id="ytick_4">
     <g id="line2d_9">
      <g>
       <use xlink:href="#m32a9d5f17a" x="47.72" y="138.907333" style="stroke: #000000; stroke-width: 0.8"/>
      </g>
     </g>
     <g id="text_9">
      <!-- 0.7 -->
      <g transform="translate(24.816875 142.706552) scale(0.1 -0.1)">
       <defs>
        <path id="DejaVuSans-37" d="M 525 4666 
L 3525 4666 
L 3525 4397 
L 1831 0 
L 1172 0 
L 2766 4134 
L 525 4134 
L 525 4666 
z
" transform="scale(0.015625)"/>
       </defs>
       <use xlink:href="#DejaVuSans-30"/>
       <use xlink:href="#DejaVuSans-2e" transform="translate(63.623047 0)"/>
       <use xlink:href="#DejaVuSans-37" transform="translate(95.410156 0)"/>
      </g>
     </g>
    </g>
    <g id="ytick_5">
     <g id="line2d_10">
      <g>
       <use xlink:href="#m32a9d5f17a" x="47.72" y="97.898" style="stroke: #000000; stroke-width: 0.8"/>
      </g>
     </g>
     <g id="text_10">
      <!-- 0.8 -->
      <g transform="translate(24.816875 101.697219) scale(0.1 -0.1)">
       <defs>
        <path id="DejaVuSans-38" d="M 2034 2216 
Q 1584 2216 1326 1975 
Q 1069 1734 1069 1313 
Q 1069 891 1326 650 
Q 1584 409 2034 409 
Q 2484 409 2743 651 
Q 3003 894 3003 1313 
Q 3003 1734 2745 1975 
Q 2488 2216 2034 2216 
z
M 1403 2484 
Q 997 2584 770 2862 
Q 544 3141 544 3541 
Q 544 4100 942 4425 
Q 1341 4750 2034 4750 
Q 2731 4750 3128 4425 
Q 3525 4100 3525 3541 
Q 3525 3141 3298 2862 
Q 3072 2584 2669 2484 
Q 3125 2378 3379 2068 
Q 3634 1759 3634 1313 
Q 3634 634 3220 271 
Q 2806 -91 2034 -91 
Q 1263 -91 848 271 
Q 434 634 434 1313 
Q 434 1759 690 2068 
Q 947 2378 1403 2484 
z
M 1172 3481 
Q 1172 3119 1398 2916 
Q 1625 2713 2034 2713 
Q 2441 2713 2670 2916 
Q 2900 3119 2900 3481 
Q 2900 3844 2670 4047 
Q 2441 4250 2034 4250 
Q 1625 4250 1398 4047 
Q 1172 3844 1172 3481 
z
" transform="scale(0.015625)"/>
       </defs>
       <use xlink:href="#DejaVuSans-30"/>
       <use xlink:href="#DejaVuSans-2e" transform="translate(63.623047 0)"/>
       <use xlink:href="#DejaVuSans-38" transform="translate(95.410156 0)"/>
      </g>
     </g>
    </g>
    <g id="ytick_6">
     <g id="line2d_11">
      <g>
       <use xlink:href="#m32a9d5f17a" x="47.72" y="56.888667" style="stroke: #000000; stroke-width: 0.8"/>
      </g>
     </g>
     <g id="text_11">
      <!-- 0.9 -->
      <g transform="translate(24.816875 60.687885) scale(0.1 -0.1)">
       <defs>
        <path id="DejaVuSans-39" d="M 703 97 
L 703 672 
Q 941 559 1184 500 
Q 1428 441 1663 441 
Q 2288 441 2617 861 
Q 2947 1281 2994 2138 
Q 2813 1869 2534 1725 
Q 2256 1581 1919 1581 
Q 1219 1581 811 2004 
Q 403 2428 403 3163 
Q 403 3881 828 4315 
Q 1253 4750 1959 4750 
Q 2769 4750 3195 4129 
Q 3622 3509 3622 2328 
Q 3622 1225 3098 567 
Q 2575 -91 1691 -91 
Q 1453 -91 1209 -44 
Q 966 3 703 97 
z
M 1959 2075 
Q 2384 2075 2632 2365 
Q 2881 2656 2881 3163 
Q 2881 3666 2632 3958 
Q 2384 4250 1959 4250 
Q 1534 4250 1286 3958 
Q 1038 3666 1038 3163 
Q 1038 2656 1286 2365 
Q 1534 2075 1959 2075 
z
" transform="scale(0.015625)"/>
       </defs>
       <use xlink:href="#DejaVuSans-30"/>
       <use xlink:href="#DejaVuSans-2e" transform="translate(63.623047 0)"/>
       <use xlink:href="#DejaVuSans-39" transform="translate(95.410156 0)"/>
      </g>
     </g>
    </g>
    <g id="text_12">
     <!-- ROC-AUC for identifying exchangeable donors -->
     <g transform="translate(18.737188 274.417469) rotate(-90) scale(0.1 -0.1)">
      <defs>
       <path id="DejaVuSans-52" d="M 2841 2188 
Q 3044 2119 3236 1894 
Q 3428 1669 3622 1275 
L 4263 0 
L 3584 0 
L 2988 1197 
Q 2756 1666 2539 1819 
Q 2322 1972 1947 1972 
L 1259 1972 
L 1259 0 
L 628 0 
L 628 4666 
L 2053 4666 
Q 2853 4666 3247 4331 
Q 3641 3997 3641 3322 
Q 3641 2881 3436 2590 
Q 3231 2300 2841 2188 
z
M 1259 4147 
L 1259 2491 
L 2053 2491 
Q 2509 2491 2742 2702 
Q 2975 2913 2975 3322 
Q 2975 3731 2742 3939 
Q 2509 4147 2053 4147 
L 1259 4147 
z
" transform="scale(0.015625)"/>
       <path id="DejaVuSans-4f" d="M 2522 4238 
Q 1834 4238 1429 3725 
Q 1025 3213 1025 2328 
Q 1025 1447 1429 934 
Q 1834 422 2522 422 
Q 3209 422 3611 934 
Q 4013 1447 4013 2328 
Q 4013 3213 3611 3725 
Q 3209 4238 2522 4238 
z
M 2522 4750 
Q 3503 4750 4090 4092 
Q 4678 3434 4678 2328 
Q 4678 1225 4090 567 
Q 3503 -91 2522 -91 
Q 1538 -91 948 565 
Q 359 1222 359 2328 
Q 359 3434 948 4092 
Q 1538 4750 2522 4750 
z
" transform="scale(0.015625)"/>
       <path id="DejaVuSans-43" d="M 4122 4306 
L 4122 3641 
Q 3803 3938 3442 4084 
Q 3081 4231 2675 4231 
Q 1875 4231 1450 3742 
Q 1025 3253 1025 2328 
Q 1025 1406 1450 917 
Q 1875 428 2675 428 
Q 3081 428 3442 575 
Q 3803 722 4122 1019 
L 4122 359 
Q 3791 134 3420 21 
Q 3050 -91 2638 -91 
Q 1578 -91 968 557 
Q 359 1206 359 2328 
Q 359 3453 968 4101 
Q 1578 4750 2638 4750 
Q 3056 4750 3426 4639 
Q 3797 4528 4122 4306 
z
" transform="scale(0.015625)"/>
       <path id="DejaVuSans-2d" d="M 313 2009 
L 1997 2009 
L 1997 1497 
L 313 1497 
L 313 2009 
z
" transform="scale(0.015625)"/>
       <path id="DejaVuSans-41" d="M 2188 4044 
L 1331 1722 
L 3047 1722 
L 2188 4044 
z
M 1831 4666 
L 2547 4666 
L 4325 0 
L 3669 0 
L 3244 1197 
L 1141 1197 
L 716 0 
L 50 0 
L 1831 4666 
z
" transform="scale(0.015625)"/>
       <path id="DejaVuSans-55" d="M 556 4666 
L 1191 4666 
L 1191 1831 
Q 1191 1081 1462 751 
Q 1734 422 2344 422 
Q 2950 422 3222 751 
Q 3494 1081 3494 1831 
L 3494 4666 
L 4128 4666 
L 4128 1753 
Q 4128 841 3676 375 
Q 3225 -91 2344 -91 
Q 1459 -91 1007 375 
Q 556 841 556 1753 
L 556 4666 
z
" transform="scale(0.015625)"/>
       <path id="DejaVuSans-20" transform="scale(0.015625)"/>
      </defs>
      <use xlink:href="#DejaVuSans-52"/>
      <use xlink:href="#DejaVuSans-4f" transform="translate(69.482422 0)"/>
      <use xlink:href="#DejaVuSans-43" transform="translate(148.193359 0)"/>
      <use xlink:href="#DejaVuSans-2d" transform="translate(218.017578 0)"/>
      <use xlink:href="#DejaVuSans-41" transform="translate(251.851562 0)"/>
      <use xlink:href="#DejaVuSans-55" transform="translate(320.259766 0)"/>
      <use xlink:href="#DejaVuSans-43" transform="translate(393.453125 0)"/>
      <use xlink:href="#DejaVuSans-20" transform="translate(463.277344 0)"/>
      <use xlink:href="#DejaVuSans-66" transform="translate(495.064453 0)"/>
      <use xlink:href="#DejaVuSans-6f" transform="translate(530.269531 0)"/>
      <use xlink:href="#DejaVuSans-72" transform="translate(591.451172 0)"/>
      <use xlink:href="#DejaVuSans-20" transform="translate(632.564453 0)"/>
      <use xlink:href="#DejaVuSans-69" transform="translate(664.351562 0)"/>
      <use xlink:href="#DejaVuSans-64" transform="translate(692.134766 0)"/>
      <use xlink:href="#DejaVuSans-65" transform="translate(755.611328 0)"/>
      <use xlink:href="#DejaVuSans-6e" transform="translate(817.134766 0)"/>
      <use xlink:href="#DejaVuSans-74" transform="translate(880.513672 0)"/>
      <use xlink:href="#DejaVuSans-69" transform="translate(919.722656 0)"/>
      <use xlink:href="#DejaVuSans-66" transform="translate(947.505859 0)"/>
      <use xlink:href="#DejaVuSans-79" transform="translate(980.960938 0)"/>
      <use xlink:href="#DejaVuSans-69" transform="translate(1040.140625 0)"/>
      <use xlink:href="#DejaVuSans-6e" transform="translate(1067.923828 0)"/>
      <use xlink:href="#DejaVuSans-67" transform="translate(1131.302734 0)"/>
      <use xlink:href="#DejaVuSans-20" transform="translate(1194.779297 0)"/>
      <use xlink:href="#DejaVuSans-65" transform="translate(1226.566406 0)"/>
      <use xlink:href="#DejaVuSans-78" transform="translate(1286.339844 0)"/>
      <use xlink:href="#DejaVuSans-63" transform="translate(1343.769531 0)"/>
      <use xlink:href="#DejaVuSans-68" transform="translate(1398.75 0)"/>
      <use xlink:href="#DejaVuSans-61" transform="translate(1462.128906 0)"/>
      <use xlink:href="#DejaVuSans-6e" transform="translate(1523.408203 0)"/>
      <use xlink:href="#DejaVuSans-67" transform="translate(1586.787109 0)"/>
      <use xlink:href="#DejaVuSans-65" transform="translate(1650.263672 0)"/>
      <use xlink:href="#DejaVuSans-61" transform="translate(1711.787109 0)"/>
      <use xlink:href="#DejaVuSans-62" transform="translate(1773.066406 0)"/>
      <use xlink:href="#DejaVuSans-6c" transform="translate(1836.542969 0)"/>
      <use xlink:href="#DejaVuSans-65" transform="translate(1864.326172 0)"/>
      <use xlink:href="#DejaVuSans-20" transform="translate(1925.849609 0)"/>
      <use xlink:href="#DejaVuSans-64" transform="translate(1957.636719 0)"/>
      <use xlink:href="#DejaVuSans-6f" transform="translate(2021.113281 0)"/>
      <use xlink:href="#DejaVuSans-6e" transform="translate(2082.294922 0)"/>
      <use xlink:href="#DejaVuSans-6f" transform="translate(2145.673828 0)"/>
      <use xlink:href="#DejaVuSans-72" transform="translate(2206.855469 0)"/>
      <use xlink:href="#DejaVuSans-73" transform="translate(2247.96875 0)"/>
     </g>
    </g>
   </g>
   <g id="LineCollection_1">
    <path d="M 87.809697 166.979498 
L 87.809697 162.888801 
" clip-path="url(#pae653a637e)" style="fill: none; stroke: #000000; stroke-width: 1.5"/>
    <path d="M 213.09 201.608581 
L 213.09 197.356559 
" clip-path="url(#pae653a637e)" style="fill: none; stroke: #000000; stroke-width: 1.5"/>
    <path d="M 338.370303 178.475098 
L 338.370303 174.047409 
" clip-path="url(#pae653a637e)" style="fill: none; stroke: #000000; stroke-width: 1.5"/>
    <path d="M 463.650606 240.694977 
L 463.650606 234.335904 
" clip-path="url(#pae653a637e)" style="fill: none; stroke: #000000; stroke-width: 1.5"/>
    <path d="M 588.930909 212.330386 
L 588.930909 207.411786 
" clip-path="url(#pae653a637e)" style="fill: none; stroke: #000000; stroke-width: 1.5"/>
   </g>
   <g id="line2d_12">
    <defs>
     <path id="m94a0041ed6" d="M 2 0 
L -2 -0 
" style="stroke: #000000"/>
    </defs>
    <g clip-path="url(#pae653a637e)">
     <use xlink:href="#m94a0041ed6" x="87.809697" y="166.979498" style="fill: #1f77b4; stroke: #000000"/>
     <use xlink:href="#m94a0041ed6" x="213.09" y="201.608581" style="fill: #1f77b4; stroke: #000000"/>
     <use xlink:href="#m94a0041ed6" x="338.370303" y="178.475098" style="fill: #1f77b4; stroke: #000000"/>
     <use xlink:href="#m94a0041ed6" x="463.650606" y="240.694977" style="fill: #1f77b4; stroke: #000000"/>
     <use xlink:href="#m94a0041ed6" x="588.930909" y="212.330386" style="fill: #1f77b4; stroke: #000000"/>
    </g>
   </g>
   <g id="line2d_13">
    <g clip-path="url(#pae653a637e)">
     <use xlink:href="#m94a0041ed6" x="87.809697" y="162.888801" style="fill: #1f77b4; stroke: #000000"/>
     <use xlink:href="#m94a0041ed6" x="213.09" y="197.356559" style="fill: #1f77b4; stroke: #000000"/>
     <use xlink:href="#m94a0041ed6" x="338.370303" y="174.047409" style="fill: #1f77b4; stroke: #000000"/>
     <use xlink:href="#m94a0041ed6" x="463.650606" y="234.335904" style="fill: #1f77b4; stroke: #000000"/>
     <use xlink:href="#m94a0041ed6" x="588.930909" y="207.411786" style="fill: #1f77b4; stroke: #000000"/>
    </g>
   </g>
   <g id="LineCollection_2">
    <path d="M 107.854545 158.067006 
L 107.854545 154.135562 
" clip-path="url(#pae653a637e)" style="fill: none; stroke: #000000; stroke-width: 1.5"/>
    <path d="M 233.134848 176.922187 
L 233.134848 172.40089 
" clip-path="url(#pae653a637e)" style="fill: none; stroke: #000000; stroke-width: 1.5"/>
    <path d="M 358.415152 165.44117 
L 358.415152 160.890565 
" clip-path="url(#pae653a637e)" style="fill: none; stroke: #000000; stroke-width: 1.5"/>
    <path d="M 483.695455 246.512854 
L 483.695455 240.392865 
" clip-path="url(#pae653a637e)" style="fill: none; stroke: #000000; stroke-width: 1.5"/>
    <path d="M 608.975758 204.789388 
L 608.975758 199.735022 
" clip-path="url(#pae653a637e)" style="fill: none; stroke: #000000; stroke-width: 1.5"/>
   </g>
   <g id="line2d_14">
    <g clip-path="url(#pae653a637e)">
     <use xlink:href="#m94a0041ed6" x="107.854545" y="158.067006" style="fill: #1f77b4; stroke: #000000"/>
     <use xlink:href="#m94a0041ed6" x="233.134848" y="176.922187" style="fill: #1f77b4; stroke: #000000"/>
     <use xlink:href="#m94a0041ed6" x="358.415152" y="165.44117" style="fill: #1f77b4; stroke: #000000"/>
     <use xlink:href="#m94a0041ed6" x="483.695455" y="246.512854" style="fill: #1f77b4; stroke: #000000"/>
     <use xlink:href="#m94a0041ed6" x="608.975758" y="204.789388" style="fill: #1f77b4; stroke: #000000"/>
    </g>
   </g>
   <g id="line2d_15">
    <g clip-path="url(#pae653a637e)">
     <use xlink:href="#m94a0041ed6" x="107.854545" y="154.135562" style="fill: #1f77b4; stroke: #000000"/>
     <use xlink:href="#m94a0041ed6" x="233.134848" y="172.40089" style="fill: #1f77b4; stroke: #000000"/>
     <use xlink:href="#m94a0041ed6" x="358.415152" y="160.890565" style="fill: #1f77b4; stroke: #000000"/>
     <use xlink:href="#m94a0041ed6" x="483.695455" y="240.392865" style="fill: #1f77b4; stroke: #000000"/>
     <use xlink:href="#m94a0041ed6" x="608.975758" y="199.735022" style="fill: #1f77b4; stroke: #000000"/>
    </g>
   </g>
   <g id="LineCollection_3">
    <path d="M 127.899394 151.570078 
L 127.899394 147.625573 
" clip-path="url(#pae653a637e)" style="fill: none; stroke: #000000; stroke-width: 1.5"/>
    <path d="M 253.179697 173.977109 
L 253.179697 169.409488 
" clip-path="url(#pae653a637e)" style="fill: none; stroke: #000000; stroke-width: 1.5"/>
    <path d="M 378.46 162.780465 
L 378.46 158.217325 
" clip-path="url(#pae653a637e)" style="fill: none; stroke: #000000; stroke-width: 1.5"/>
    <path d="M 503.740303 246.647745 
L 503.740303 240.609701 
" clip-path="url(#pae653a637e)" style="fill: none; stroke: #000000; stroke-width: 1.5"/>
    <path d="M 629.020606 202.533214 
L 629.020606 197.498009 
" clip-path="url(#pae653a637e)" style="fill: none; stroke: #000000; stroke-width: 1.5"/>
   </g>
   <g id="line2d_16">
    <g clip-path="url(#pae653a637e)">
     <use xlink:href="#m94a0041ed6" x="127.899394" y="151.570078" style="fill: #1f77b4; stroke: #000000"/>
     <use xlink:href="#m94a0041ed6" x="253.179697" y="173.977109" style="fill: #1f77b4; stroke: #000000"/>
     <use xlink:href="#m94a0041ed6" x="378.46" y="162.780465" style="fill: #1f77b4; stroke: #000000"/>
     <use xlink:href="#m94a0041ed6" x="503.740303" y="246.647745" style="fill: #1f77b4; stroke: #000000"/>
     <use xlink:href="#m94a0041ed6" x="629.020606" y="202.533214" style="fill: #1f77b4; stroke: #000000"/>
    </g>
   </g>
   <g id="line2d_17">
    <g clip-path="url(#pae653a637e)">
     <use xlink:href="#m94a0041ed6" x="127.899394" y="147.625573" style="fill: #1f77b4; stroke: #000000"/>
     <use xlink:href="#m94a0041ed6" x="253.179697" y="169.409488" style="fill: #1f77b4; stroke: #000000"/>
     <use xlink:href="#m94a0041ed6" x="378.46" y="158.217325" style="fill: #1f77b4; stroke: #000000"/>
     <use xlink:href="#m94a0041ed6" x="503.740303" y="240.609701" style="fill: #1f77b4; stroke: #000000"/>
     <use xlink:href="#m94a0041ed6" x="629.020606" y="197.498009" style="fill: #1f77b4; stroke: #000000"/>
    </g>
   </g>
   <g id="LineCollection_4">
    <path d="M 147.944242 221.81012 
L 147.944242 218.668389 
" clip-path="url(#pae653a637e)" style="fill: none; stroke: #000000; stroke-width: 1.5"/>
    <path d="M 273.224545 222.192325 
L 273.224545 218.525371 
" clip-path="url(#pae653a637e)" style="fill: none; stroke: #000000; stroke-width: 1.5"/>
    <path d="M 398.504848 224.809238 
L 398.504848 221.252958 
" clip-path="url(#pae653a637e)" style="fill: none; stroke: #000000; stroke-width: 1.5"/>
    <path d="M 523.785152 221.4672 
L 523.785152 216.095996 
" clip-path="url(#pae653a637e)" style="fill: none; stroke: #000000; stroke-width: 1.5"/>
    <path d="M 649.065455 228.097287 
L 649.065455 223.926955 
" clip-path="url(#pae653a637e)" style="fill: none; stroke: #000000; stroke-width: 1.5"/>
   </g>
   <g id="line2d_18">
    <g clip-path="url(#pae653a637e)">
     <use xlink:href="#m94a0041ed6" x="147.944242" y="221.81012" style="fill: #1f77b4; stroke: #000000"/>
     <use xlink:href="#m94a0041ed6" x="273.224545" y="222.192325" style="fill: #1f77b4; stroke: #000000"/>
     <use xlink:href="#m94a0041ed6" x="398.504848" y="224.809238" style="fill: #1f77b4; stroke: #000000"/>
     <use xlink:href="#m94a0041ed6" x="523.785152" y="221.4672" style="fill: #1f77b4; stroke: #000000"/>
     <use xlink:href="#m94a0041ed6" x="649.065455" y="228.097287" style="fill: #1f77b4; stroke: #000000"/>
    </g>
   </g>
   <g id="line2d_19">
    <g clip-path="url(#pae653a637e)">
     <use xlink:href="#m94a0041ed6" x="147.944242" y="218.668389" style="fill: #1f77b4; stroke: #000000"/>
     <use xlink:href="#m94a0041ed6" x="273.224545" y="218.525371" style="fill: #1f77b4; stroke: #000000"/>
     <use xlink:href="#m94a0041ed6" x="398.504848" y="221.252958" style="fill: #1f77b4; stroke: #000000"/>
     <use xlink:href="#m94a0041ed6" x="523.785152" y="216.095996" style="fill: #1f77b4; stroke: #000000"/>
     <use xlink:href="#m94a0041ed6" x="649.065455" y="223.926955" style="fill: #1f77b4; stroke: #000000"/>
    </g>
   </g>
   <g id="LineCollection_5">
    <path d="M 167.989091 119.294971 
L 167.989091 115.585622 
" clip-path="url(#pae653a637e)" style="fill: none; stroke: #000000; stroke-width: 1.5"/>
    <path d="M 293.269394 88.785674 
L 293.269394 85.539558 
" clip-path="url(#pae653a637e)" style="fill: none; stroke: #000000; stroke-width: 1.5"/>
    <path d="M 418.549697 98.448075 
L 418.549697 95.103701 
" clip-path="url(#pae653a637e)" style="fill: none; stroke: #000000; stroke-width: 1.5"/>
    <path d="M 543.83 83.92306 
L 543.83 79.722475 
" clip-path="url(#pae653a637e)" style="fill: none; stroke: #000000; stroke-width: 1.5"/>
    <path d="M 669.110303 87.686103 
L 669.110303 84.355289 
" clip-path="url(#pae653a637e)" style="fill: none; stroke: #000000; stroke-width: 1.5"/>
   </g>
   <g id="line2d_20">
    <g clip-path="url(#pae653a637e)">
     <use xlink:href="#m94a0041ed6" x="167.989091" y="119.294971" style="fill: #1f77b4; stroke: #000000"/>
     <use xlink:href="#m94a0041ed6" x="293.269394" y="88.785674" style="fill: #1f77b4; stroke: #000000"/>
     <use xlink:href="#m94a0041ed6" x="418.549697" y="98.448075" style="fill: #1f77b4; stroke: #000000"/>
     <use xlink:href="#m94a0041ed6" x="543.83" y="83.92306" style="fill: #1f77b4; stroke: #000000"/>
     <use xlink:href="#m94a0041ed6" x="669.110303" y="87.686103" style="fill: #1f77b4; stroke: #000000"/>
    </g>
   </g>
   <g id="line2d_21">
    <g clip-path="url(#pae653a637e)">
     <use xlink:href="#m94a0041ed6" x="167.989091" y="115.585622" style="fill: #1f77b4; stroke: #000000"/>
     <use xlink:href="#m94a0041ed6" x="293.269394" y="85.539558" style="fill: #1f77b4; stroke: #000000"/>
     <use xlink:href="#m94a0041ed6" x="418.549697" y="95.103701" style="fill: #1f77b4; stroke: #000000"/>
     <use xlink:href="#m94a0041ed6" x="543.83" y="79.722475" style="fill: #1f77b4; stroke: #000000"/>
     <use xlink:href="#m94a0041ed6" x="669.110303" y="84.355289" style="fill: #1f77b4; stroke: #000000"/>
    </g>
   </g>
   <g id="line2d_22">
    <path d="M 47.72 220.926 
L 709.2 220.926 
" clip-path="url(#pae653a637e)" style="fill: none; stroke-dasharray: 4.44,1.92; stroke-dashoffset: 0; stroke: #dc143c; stroke-width: 1.2"/>
   </g>
   <g id="patch_28">
    <path d="M 47.72 282.44 
L 47.72 36.384 
" style="fill: none; stroke: #000000; stroke-width: 0.8; stroke-linejoin: miter; stroke-linecap: square"/>
   </g>
   <g id="patch_29">
    <path d="M 709.2 282.44 
L 709.2 36.384 
" style="fill: none; stroke: #000000; stroke-width: 0.8; stroke-linejoin: miter; stroke-linecap: square"/>
   </g>
   <g id="patch_30">
    <path d="M 47.72 282.44 
L 709.2 282.44 
" style="fill: none; stroke: #000000; stroke-width: 0.8; stroke-linejoin: miter; stroke-linecap: square"/>
   </g>
   <g id="patch_31">
    <path d="M 47.72 36.384 
L 709.2 36.384 
" style="fill: none; stroke: #000000; stroke-width: 0.8; stroke-linejoin: miter; stroke-linecap: square"/>
   </g>
   <g id="text_13">
    <!-- chance -->
    <g style="fill: #dc143c" transform="translate(664.099091 216.00488) scale(0.09 -0.09)">
     <use xlink:href="#DejaVuSans-63"/>
     <use xlink:href="#DejaVuSans-68" transform="translate(54.980469 0)"/>
     <use xlink:href="#DejaVuSans-61" transform="translate(118.359375 0)"/>
     <use xlink:href="#DejaVuSans-6e" transform="translate(179.638672 0)"/>
     <use xlink:href="#DejaVuSans-63" transform="translate(243.017578 0)"/>
     <use xlink:href="#DejaVuSans-65" transform="translate(297.998047 0)"/>
    </g>
   </g>
   <g id="text_14">
    <!-- Borrowing-decision discrimination. UIP-JS uses the current trial's outcome; -->
    <g transform="translate(192.689688 19.186188) scale(0.1 -0.1)">
     <defs>
      <path id="DejaVuSans-42" d="M 1259 2228 
L 1259 519 
L 2272 519 
Q 2781 519 3026 730 
Q 3272 941 3272 1375 
Q 3272 1813 3026 2020 
Q 2781 2228 2272 2228 
L 1259 2228 
z
M 1259 4147 
L 1259 2741 
L 2194 2741 
Q 2656 2741 2882 2914 
Q 3109 3088 3109 3444 
Q 3109 3797 2882 3972 
Q 2656 4147 2194 4147 
L 1259 4147 
z
M 628 4666 
L 2241 4666 
Q 2963 4666 3353 4366 
Q 3744 4066 3744 3513 
Q 3744 3084 3544 2831 
Q 3344 2578 2956 2516 
Q 3422 2416 3680 2098 
Q 3938 1781 3938 1306 
Q 3938 681 3513 340 
Q 3088 0 2303 0 
L 628 0 
L 628 4666 
z
" transform="scale(0.015625)"/>
      <path id="DejaVuSans-77" d="M 269 3500 
L 844 3500 
L 1563 769 
L 2278 3500 
L 2956 3500 
L 3675 769 
L 4391 3500 
L 4966 3500 
L 4050 0 
L 3372 0 
L 2619 2869 
L 1863 0 
L 1184 0 
L 269 3500 
z
" transform="scale(0.015625)"/>
      <path id="DejaVuSans-49" d="M 628 4666 
L 1259 4666 
L 1259 0 
L 628 0 
L 628 4666 
z
" transform="scale(0.015625)"/>
      <path id="DejaVuSans-50" d="M 1259 4147 
L 1259 2394 
L 2053 2394 
Q 2494 2394 2734 2622 
Q 2975 2850 2975 3272 
Q 2975 3691 2734 3919 
Q 2494 4147 2053 4147 
L 1259 4147 
z
M 628 4666 
L 2053 4666 
Q 2838 4666 3239 4311 
Q 3641 3956 3641 3272 
Q 3641 2581 3239 2228 
Q 2838 1875 2053 1875 
L 1259 1875 
L 1259 0 
L 628 0 
L 628 4666 
z
" transform="scale(0.015625)"/>
      <path id="DejaVuSans-4a" d="M 628 4666 
L 1259 4666 
L 1259 325 
Q 1259 -519 939 -900 
Q 619 -1281 -91 -1281 
L -331 -1281 
L -331 -750 
L -134 -750 
Q 284 -750 456 -515 
Q 628 -281 628 325 
L 628 4666 
z
" transform="scale(0.015625)"/>
      <path id="DejaVuSans-27" d="M 1147 4666 
L 1147 2931 
L 616 2931 
L 616 4666 
L 1147 4666 
z
" transform="scale(0.015625)"/>
      <path id="DejaVuSans-3b" d="M 750 3309 
L 1409 3309 
L 1409 2516 
L 750 2516 
L 750 3309 
z
M 750 794 
L 1409 794 
L 1409 256 
L 897 -744 
L 494 -744 
L 750 256 
L 750 794 
z
" transform="scale(0.015625)"/>
     </defs>
     <use xlink:href="#DejaVuSans-42"/>
     <use xlink:href="#DejaVuSans-6f" transform="translate(68.603516 0)"/>
     <use xlink:href="#DejaVuSans-72" transform="translate(129.785156 0)"/>
     <use xlink:href="#DejaVuSans-72" transform="translate(169.148438 0)"/>
     <use xlink:href="#DejaVuSans-6f" transform="translate(208.011719 0)"/>
     <use xlink:href="#DejaVuSans-77" transform="translate(269.193359 0)"/>
     <use xlink:href="#DejaVuSans-69" transform="translate(350.980469 0)"/>
     <use xlink:href="#DejaVuSans-6e" transform="translate(378.763672 0)"/>
     <use xlink:href="#DejaVuSans-67" transform="translate(442.142578 0)"/>
     <use xlink:href="#DejaVuSans-2d" transform="translate(505.619141 0)"/>
     <use xlink:href="#DejaVuSans-64" transform="translate(541.703125 0)"/>
     <use xlink:href="#DejaVuSans-65" transform="translate(605.179688 0)"/>
     <use xlink:href="#DejaVuSans-63" transform="translate(666.703125 0)"/>
     <use xlink:href="#DejaVuSans-69" transform="translate(721.683594 0)"/>
     <use xlink:href="#DejaVuSans-73" transform="translate(749.466797 0)"/>
     <use xlink:href="#DejaVuSans-69" transform="translate(801.566406 0)"/>
     <use xlink:href="#DejaVuSans-6f" transform="translate(829.349609 0)"/>
     <use xlink:href="#DejaVuSans-6e" transform="translate(890.53125 0)"/>
     <use xlink:href="#DejaVuSans-20" transform="translate(953.910156 0)"/>
     <use xlink:href="#DejaVuSans-64" transform="translate(985.697266 0)"/>
     <use xlink:href="#DejaVuSans-69" transform="translate(1049.173828 0)"/>
     <use xlink:href="#DejaVuSans-73" transform="translate(1076.957031 0)"/>
     <use xlink:href="#DejaVuSans-63" transform="translate(1129.056641 0)"/>
     <use xlink:href="#DejaVuSans-72" transform="translate(1184.037109 0)"/>
     <use xlink:href="#DejaVuSans-69" transform="translate(1225.150391 0)"/>
     <use xlink:href="#DejaVuSans-6d" transform="translate(1252.933594 0)"/>
     <use xlink:href="#DejaVuSans-69" transform="translate(1350.345703 0)"/>
     <use xlink:href="#DejaVuSans-6e" transform="translate(1378.128906 0)"/>
     <use xlink:href="#DejaVuSans-61" transform="translate(1441.507812 0)"/>
     <use xlink:href="#DejaVuSans-74" transform="translate(1502.787109 0)"/>
     <use xlink:href="#DejaVuSans-69" transform="translate(1541.996094 0)"/>
     <use xlink:href="#DejaVuSans-6f" transform="translate(1569.779297 0)"/>
     <use xlink:href="#DejaVuSans-6e" transform="translate(1630.960938 0)"/>
     <use xlink:href="#DejaVuSans-2e" transform="translate(1694.339844 0)"/>
     <use xlink:href="#DejaVuSans-20" transform="translate(1726.126953 0)"/>
     <use xlink:href="#DejaVuSans-55" transform="translate(1757.914062 0)"/>
     <use xlink:href="#DejaVuSans-49" transform="translate(1831.107422 0)"/>
     <use xlink:href="#DejaVuSans-50" transform="translate(1860.599609 0)"/>
     <use xlink:href="#DejaVuSans-2d" transform="translate(1918.652344 0)"/>
     <use xlink:href="#DejaVuSans-4a" transform="translate(1960.361328 0)"/>
     <use xlink:href="#DejaVuSans-53" transform="translate(1989.853516 0)"/>
     <use xlink:href="#DejaVuSans-20" transform="translate(2053.330078 0)"/>
     <use xlink:href="#DejaVuSans-75" transform="translate(2085.117188 0)"/>
     <use xlink:href="#DejaVuSans-73" transform="translate(2148.496094 0)"/>
     <use xlink:href="#DejaVuSans-65" transform="translate(2200.595703 0)"/>
     <use xlink:href="#DejaVuSans-73" transform="translate(2262.119141 0)"/>
     <use xlink:href="#DejaVuSans-20" transform="translate(2314.21875 0)"/>
     <use xlink:href="#DejaVuSans-74" transform="translate(2346.005859 0)"/>
     <use xlink:href="#DejaVuSans-68" transform="translate(2385.214844 0)"/>
     <use xlink:href="#DejaVuSans-65" transform="translate(2448.59375 0)"/>
     <use xlink:href="#DejaVuSans-20" transform="translate(2510.117188 0)"/>
     <use xlink:href="#DejaVuSans-63" transform="translate(2541.904297 0)"/>
     <use xlink:href="#DejaVuSans-75" transform="translate(2596.884766 0)"/>
     <use xlink:href="#DejaVuSans-72" transform="translate(2660.263672 0)"/>
     <use xlink:href="#DejaVuSans-72" transform="translate(2699.626953 0)"/>
     <use xlink:href="#DejaVuSans-65" transform="translate(2738.490234 0)"/>
     <use xlink:href="#DejaVuSans-6e" transform="translate(2800.013672 0)"/>
     <use xlink:href="#DejaVuSans-74" transform="translate(2863.392578 0)"/>
     <use xlink:href="#DejaVuSans-20" transform="translate(2902.601562 0)"/>
     <use xlink:href="#DejaVuSans-74" transform="translate(2934.388672 0)"/>
     <use xlink:href="#DejaVuSans-72" transform="translate(2973.597656 0)"/>
     <use xlink:href="#DejaVuSans-69" transform="translate(3014.710938 0)"/>
     <use xlink:href="#DejaVuSans-61" transform="translate(3042.494141 0)"/>
     <use xlink:href="#DejaVuSans-6c" transform="translate(3103.773438 0)"/>
     <use xlink:href="#DejaVuSans-27" transform="translate(3131.556641 0)"/>
     <use xlink:href="#DejaVuSans-73" transform="translate(3159.046875 0)"/>
     <use xlink:href="#DejaVuSans-20" transform="translate(3211.146484 0)"/>
     <use xlink:href="#DejaVuSans-6f" transform="translate(3242.933594 0)"/>
     <use xlink:href="#DejaVuSans-75" transform="translate(3304.115234 0)"/>
     <use xlink:href="#DejaVuSans-74" transform="translate(3367.494141 0)"/>
     <use xlink:href="#DejaVuSans-63" transform="translate(3406.703125 0)"/>
     <use xlink:href="#DejaVuSans-6f" transform="translate(3461.683594 0)"/>
     <use xlink:href="#DejaVuSans-6d" transform="translate(3522.865234 0)"/>
     <use xlink:href="#DejaVuSans-65" transform="translate(3620.277344 0)"/>
     <use xlink:href="#DejaVuSans-3b" transform="translate(3681.800781 0)"/>
    </g>
    <!-- all other methods shown are available at design time. -->
    <g transform="translate(243.430313 30.384) scale(0.1 -0.1)">
     <use xlink:href="#DejaVuSans-61"/>
     <use xlink:href="#DejaVuSans-6c" transform="translate(61.279297 0)"/>
     <use xlink:href="#DejaVuSans-6c" transform="translate(89.0625 0)"/>
     <use xlink:href="#DejaVuSans-20" transform="translate(116.845703 0)"/>
     <use xlink:href="#DejaVuSans-6f" transform="translate(148.632812 0)"/>
     <use xlink:href="#DejaVuSans-74" transform="translate(209.814453 0)"/>
     <use xlink:href="#DejaVuSans-68" transform="translate(249.023438 0)"/>
     <use xlink:href="#DejaVuSans-65" transform="translate(312.402344 0)"/>
     <use xlink:href="#DejaVuSans-72" transform="translate(373.925781 0)"/>
     <use xlink:href="#DejaVuSans-20" transform="translate(415.039062 0)"/>
     <use xlink:href="#DejaVuSans-6d" transform="translate(446.826172 0)"/>
     <use xlink:href="#DejaVuSans-65" transform="translate(544.238281 0)"/>
     <use xlink:href="#DejaVuSans-74" transform="translate(605.761719 0)"/>
     <use xlink:href="#DejaVuSans-68" transform="translate(644.970703 0)"/>
     <use xlink:href="#DejaVuSans-6f" transform="translate(708.349609 0)"/>
     <use xlink:href="#DejaVuSans-64" transform="translate(769.53125 0)"/>
     <use xlink:href="#DejaVuSans-73" transform="translate(833.007812 0)"/>
     <use xlink:href="#DejaVuSans-20" transform="translate(885.107422 0)"/>
     <use xlink:href="#DejaVuSans-73" transform="translate(916.894531 0)"/>
     <use xlink:href="#DejaVuSans-68" transform="translate(968.994141 0)"/>
     <use xlink:href="#DejaVuSans-6f" transform="translate(1032.373047 0)"/>
     <use xlink:href="#DejaVuSans-77" transform="translate(1093.554688 0)"/>
     <use xlink:href="#DejaVuSans-6e" transform="translate(1175.341797 0)"/>
     <use xlink:href="#DejaVuSans-20" transform="translate(1238.720703 0)"/>
     <use xlink:href="#DejaVuSans-61" transform="translate(1270.507812 0)"/>
     <use xlink:href="#DejaVuSans-72" transform="translate(1331.787109 0)"/>
     <use xlink:href="#DejaVuSans-65" transform="translate(1370.650391 0)"/>
     <use xlink:href="#DejaVuSans-20" transform="translate(1432.173828 0)"/>
     <use xlink:href="#DejaVuSans-61" transform="translate(1463.960938 0)"/>
     <use xlink:href="#DejaVuSans-76" transform="translate(1525.240234 0)"/>
     <use xlink:href="#DejaVuSans-61" transform="translate(1584.419922 0)"/>
     <use xlink:href="#DejaVuSans-69" transform="translate(1645.699219 0)"/>
     <use xlink:href="#DejaVuSans-6c" transform="translate(1673.482422 0)"/>
     <use xlink:href="#DejaVuSans-61" transform="translate(1701.265625 0)"/>
     <use xlink:href="#DejaVuSans-62" transform="translate(1762.544922 0)"/>
     <use xlink:href="#DejaVuSans-6c" transform="translate(1826.021484 0)"/>
     <use xlink:href="#DejaVuSans-65" transform="translate(1853.804688 0)"/>
     <use xlink:href="#DejaVuSans-20" transform="translate(1915.328125 0)"/>
     <use xlink:href="#DejaVuSans-61" transform="translate(1947.115234 0)"/>
     <use xlink:href="#DejaVuSans-74" transform="translate(2008.394531 0)"/>
     <use xlink:href="#DejaVuSans-20" transform="translate(2047.603516 0)"/>
     <use xlink:href="#DejaVuSans-64" transform="translate(2079.390625 0)"/>
     <use xlink:href="#DejaVuSans-65" transform="translate(2142.867188 0)"/>
     <use xlink:href="#DejaVuSans-73" transform="translate(2204.390625 0)"/>
     <use xlink:href="#DejaVuSans-69" transform="translate(2256.490234 0)"/>
     <use xlink:href="#DejaVuSans-67" transform="translate(2284.273438 0)"/>
     <use xlink:href="#DejaVuSans-6e" transform="translate(2347.75 0)"/>
     <use xlink:href="#DejaVuSans-20" transform="translate(2411.128906 0)"/>
     <use xlink:href="#DejaVuSans-74" transform="translate(2442.916016 0)"/>
     <use xlink:href="#DejaVuSans-69" transform="translate(2482.125 0)"/>
     <use xlink:href="#DejaVuSans-6d" transform="translate(2509.908203 0)"/>
     <use xlink:href="#DejaVuSans-65" transform="translate(2607.320312 0)"/>
     <use xlink:href="#DejaVuSans-2e" transform="translate(2668.84375 0)"/>
    </g>
   </g>
   <g id="legend_1">
    <g id="patch_32">
     <path d="M 445.22875 78.0115 
L 703.6 78.0115 
Q 705.2 78.0115 705.2 76.4115 
L 705.2 41.984 
Q 705.2 40.384 703.6 40.384 
L 445.22875 40.384 
Q 443.62875 40.384 443.62875 41.984 
L 443.62875 76.4115 
Q 443.62875 78.0115 445.22875 78.0115 
z
" style="fill: #ffffff; opacity: 0.8; stroke: #cccccc; stroke-linejoin: miter"/>
    </g>
    <g id="patch_33">
     <path d="M 446.82875 49.66275 
L 462.82875 49.66275 
L 462.82875 44.06275 
L 446.82875 44.06275 
z
" style="fill: #1f77b4; opacity: 0.8; stroke: #000000; stroke-width: 0.6; stroke-linejoin: miter"/>
    </g>
    <g id="text_15">
     <!-- Rule mixture -->
     <g transform="translate(469.22875 49.66275) scale(0.08 -0.08)">
      <use xlink:href="#DejaVuSans-52"/>
      <use xlink:href="#DejaVuSans-75" transform="translate(64.982422 0)"/>
      <use xlink:href="#DejaVuSans-6c" transform="translate(128.361328 0)"/>
      <use xlink:href="#DejaVuSans-65" transform="translate(156.144531 0)"/>
      <use xlink:href="#DejaVuSans-20" transform="translate(217.667969 0)"/>
      <use xlink:href="#DejaVuSans-6d" transform="translate(249.455078 0)"/>
      <use xlink:href="#DejaVuSans-69" transform="translate(346.867188 0)"/>
      <use xlink:href="#DejaVuSans-78" transform="translate(374.650391 0)"/>
      <use xlink:href="#DejaVuSans-74" transform="translate(433.830078 0)"/>
      <use xlink:href="#DejaVuSans-75" transform="translate(473.039062 0)"/>
      <use xlink:href="#DejaVuSans-72" transform="translate(536.417969 0)"/>
      <use xlink:href="#DejaVuSans-65" transform="translate(575.28125 0)"/>
     </g>
    </g>
    <g id="patch_34">
     <path d="M 446.82875 61.40525 
L 462.82875 61.40525 
L 462.82875 55.80525 
L 446.82875 55.80525 
z
" style="fill: #ff7f0e; opacity: 0.8; stroke: #000000; stroke-width: 0.6; stroke-linejoin: miter"/>
    </g>
    <g id="text_16">
     <!-- Two-head (no prospective) -->
     <g transform="translate(469.22875 61.40525) scale(0.08 -0.08)">
      <defs>
       <path id="DejaVuSans-54" d="M -19 4666 
L 3928 4666 
L 3928 4134 
L 2272 4134 
L 2272 0 
L 1638 0 
L 1638 4134 
L -19 4134 
L -19 4666 
z
" transform="scale(0.015625)"/>
       <path id="DejaVuSans-28" d="M 1984 4856 
Q 1566 4138 1362 3434 
Q 1159 2731 1159 2009 
Q 1159 1288 1364 580 
Q 1569 -128 1984 -844 
L 1484 -844 
Q 1016 -109 783 600 
Q 550 1309 550 2009 
Q 550 2706 781 3412 
Q 1013 4119 1484 4856 
L 1984 4856 
z
" transform="scale(0.015625)"/>
       <path id="DejaVuSans-29" d="M 513 4856 
L 1013 4856 
Q 1481 4119 1714 3412 
Q 1947 2706 1947 2009 
Q 1947 1309 1714 600 
Q 1481 -109 1013 -844 
L 513 -844 
Q 928 -128 1133 580 
Q 1338 1288 1338 2009 
Q 1338 2731 1133 3434 
Q 928 4138 513 4856 
z
" transform="scale(0.015625)"/>
      </defs>
      <use xlink:href="#DejaVuSans-54"/>
      <use xlink:href="#DejaVuSans-77" transform="translate(44.583984 0)"/>
      <use xlink:href="#DejaVuSans-6f" transform="translate(126.371094 0)"/>
      <use xlink:href="#DejaVuSans-2d" transform="translate(189.427734 0)"/>
      <use xlink:href="#DejaVuSans-68" transform="translate(225.511719 0)"/>
      <use xlink:href="#DejaVuSans-65" transform="translate(288.890625 0)"/>
      <use xlink:href="#DejaVuSans-61" transform="translate(350.414062 0)"/>
      <use xlink:href="#DejaVuSans-64" transform="translate(411.693359 0)"/>
      <use xlink:href="#DejaVuSans-20" transform="translate(475.169922 0)"/>
      <use xlink:href="#DejaVuSans-28" transform="translate(506.957031 0)"/>
      <use xlink:href="#DejaVuSans-6e" transform="translate(545.970703 0)"/>
      <use xlink:href="#DejaVuSans-6f" transform="translate(609.349609 0)"/>
      <use xlink:href="#DejaVuSans-20" transform="translate(670.53125 0)"/>
      <use xlink:href="#DejaVuSans-70" transform="translate(702.318359 0)"/>
      <use xlink:href="#DejaVuSans-72" transform="translate(765.794922 0)"/>
      <use xlink:href="#DejaVuSans-6f" transform="translate(804.658203 0)"/>
      <use xlink:href="#DejaVuSans-73" transform="translate(865.839844 0)"/>
      <use xlink:href="#DejaVuSans-70" transform="translate(917.939453 0)"/>
      <use xlink:href="#DejaVuSans-65" transform="translate(981.416016 0)"/>
      <use xlink:href="#DejaVuSans-63" transform="translate(1042.939453 0)"/>
      <use xlink:href="#DejaVuSans-74" transform="translate(1097.919922 0)"/>
      <use xlink:href="#DejaVuSans-69" transform="translate(1137.128906 0)"/>
      <use xlink:href="#DejaVuSans-76" transform="translate(1164.912109 0)"/>
      <use xlink:href="#DejaVuSans-65" transform="translate(1224.091797 0)"/>
      <use xlink:href="#DejaVuSans-29" transform="translate(1285.615234 0)"/>
     </g>
    </g>
    <g id="patch_35">
     <path d="M 446.82875 73.14775 
L 462.82875 73.14775 
L 462.82875 67.54775 
L 446.82875 67.54775 
z
" style="fill: #1f4e79; stroke: #000000; stroke-width: 0.6; stroke-linejoin: miter"/>
    </g>
    <g id="text_17">
     <!-- Two-head + prospective -->
     <g transform="translate(469.22875 73.14775) scale(0.08 -0.08)">
      <defs>
       <path id="DejaVuSans-2b" d="M 2944 4013 
L 2944 2272 
L 4684 2272 
L 4684 1741 
L 2944 1741 
L 2944 0 
L 2419 0 
L 2419 1741 
L 678 1741 
L 678 2272 
L 2419 2272 
L 2419 4013 
L 2944 4013 
z
" transform="scale(0.015625)"/>
      </defs>
      <use xlink:href="#DejaVuSans-54"/>
      <use xlink:href="#DejaVuSans-77" transform="translate(44.583984 0)"/>
      <use xlink:href="#DejaVuSans-6f" transform="translate(126.371094 0)"/>
      <use xlink:href="#DejaVuSans-2d" transform="translate(189.427734 0)"/>
      <use xlink:href="#DejaVuSans-68" transform="translate(225.511719 0)"/>
      <use xlink:href="#DejaVuSans-65" transform="translate(288.890625 0)"/>
      <use xlink:href="#DejaVuSans-61" transform="translate(350.414062 0)"/>
      <use xlink:href="#DejaVuSans-64" transform="translate(411.693359 0)"/>
      <use xlink:href="#DejaVuSans-20" transform="translate(475.169922 0)"/>
      <use xlink:href="#DejaVuSans-2b" transform="translate(506.957031 0)"/>
      <use xlink:href="#DejaVuSans-20" transform="translate(590.746094 0)"/>
      <use xlink:href="#DejaVuSans-70" transform="translate(622.533203 0)"/>
      <use xlink:href="#DejaVuSans-72" transform="translate(686.009766 0)"/>
      <use xlink:href="#DejaVuSans-6f" transform="translate(724.873047 0)"/>
      <use xlink:href="#DejaVuSans-73" transform="translate(786.054688 0)"/>
      <use xlink:href="#DejaVuSans-70" transform="translate(838.154297 0)"/>
      <use xlink:href="#DejaVuSans-65" transform="translate(901.630859 0)"/>
      <use xlink:href="#DejaVuSans-63" transform="translate(963.154297 0)"/>
      <use xlink:href="#DejaVuSans-74" transform="translate(1018.134766 0)"/>
      <use xlink:href="#DejaVuSans-69" transform="translate(1057.34375 0)"/>
      <use xlink:href="#DejaVuSans-76" transform="translate(1085.126953 0)"/>
      <use xlink:href="#DejaVuSans-65" transform="translate(1144.306641 0)"/>
     </g>
    </g>
    <g id="patch_36">
     <path d="M 591.20125 49.66275 
L 607.20125 49.66275 
L 607.20125 44.06275 
L 591.20125 44.06275 
z
" style="fill: #2ca02c; opacity: 0.8; stroke: #000000; stroke-width: 0.6; stroke-linejoin: miter"/>
    </g>
    <g id="text_18">
     <!-- UIP-Dirichlet -->
     <g transform="translate(613.60125 49.66275) scale(0.08 -0.08)">
      <defs>
       <path id="DejaVuSans-44" d="M 1259 4147 
L 1259 519 
L 2022 519 
Q 2988 519 3436 956 
Q 3884 1394 3884 2338 
Q 3884 3275 3436 3711 
Q 2988 4147 2022 4147 
L 1259 4147 
z
M 628 4666 
L 1925 4666 
Q 3281 4666 3915 4102 
Q 4550 3538 4550 2338 
Q 4550 1131 3912 565 
Q 3275 0 1925 0 
L 628 0 
L 628 4666 
z
" transform="scale(0.015625)"/>
      </defs>
      <use xlink:href="#DejaVuSans-55"/>
      <use xlink:href="#DejaVuSans-49" transform="translate(73.193359 0)"/>
      <use xlink:href="#DejaVuSans-50" transform="translate(102.685547 0)"/>
      <use xlink:href="#DejaVuSans-2d" transform="translate(160.738281 0)"/>
      <use xlink:href="#DejaVuSans-44" transform="translate(196.822266 0)"/>
      <use xlink:href="#DejaVuSans-69" transform="translate(273.824219 0)"/>
      <use xlink:href="#DejaVuSans-72" transform="translate(301.607422 0)"/>
      <use xlink:href="#DejaVuSans-69" transform="translate(342.720703 0)"/>
      <use xlink:href="#DejaVuSans-63" transform="translate(370.503906 0)"/>
      <use xlink:href="#DejaVuSans-68" transform="translate(425.484375 0)"/>
      <use xlink:href="#DejaVuSans-6c" transform="translate(488.863281 0)"/>
      <use xlink:href="#DejaVuSans-65" transform="translate(516.646484 0)"/>
      <use xlink:href="#DejaVuSans-74" transform="translate(578.169922 0)"/>
     </g>
    </g>
    <g id="patch_37">
     <path d="M 591.20125 61.40525 
L 607.20125 61.40525 
L 607.20125 55.80525 
L 591.20125 55.80525 
z
" style="fill: #d62728; opacity: 0.8; stroke: #000000; stroke-width: 0.6; stroke-linejoin: miter"/>
    </g>
    <g id="text_19">
     <!-- UIP-JS (uses outcome) -->
     <g transform="translate(613.60125 61.40525) scale(0.08 -0.08)">
      <use xlink:href="#DejaVuSans-55"/>
      <use xlink:href="#DejaVuSans-49" transform="translate(73.193359 0)"/>
      <use xlink:href="#DejaVuSans-50" transform="translate(102.685547 0)"/>
      <use xlink:href="#DejaVuSans-2d" transform="translate(160.738281 0)"/>
      <use xlink:href="#DejaVuSans-4a" transform="translate(202.447266 0)"/>
      <use xlink:href="#DejaVuSans-53" transform="translate(231.939453 0)"/>
      <use xlink:href="#DejaVuSans-20" transform="translate(295.416016 0)"/>
      <use xlink:href="#DejaVuSans-28" transform="translate(327.203125 0)"/>
      <use xlink:href="#DejaVuSans-75" transform="translate(366.216797 0)"/>
      <use xlink:href="#DejaVuSans-73" transform="translate(429.595703 0)"/>
      <use xlink:href="#DejaVuSans-65" transform="translate(481.695312 0)"/>
      <use xlink:href="#DejaVuSans-73" transform="translate(543.21875 0)"/>
      <use xlink:href="#DejaVuSans-20" transform="translate(595.318359 0)"/>
      <use xlink:href="#DejaVuSans-6f" transform="translate(627.105469 0)"/>
      <use xlink:href="#DejaVuSans-75" transform="translate(688.287109 0)"/>
      <use xlink:href="#DejaVuSans-74" transform="translate(751.666016 0)"/>
      <use xlink:href="#DejaVuSans-63" transform="translate(790.875 0)"/>
      <use xlink:href="#DejaVuSans-6f" transform="translate(845.855469 0)"/>
      <use xlink:href="#DejaVuSans-6d" transform="translate(907.037109 0)"/>
      <use xlink:href="#DejaVuSans-65" transform="translate(1004.449219 0)"/>
      <use xlink:href="#DejaVuSans-29" transform="translate(1065.972656 0)"/>
     </g>
    </g>
   </g>
  </g>
 </g>
 <defs>
  <clipPath id="pae653a637e">
   <rect x="47.72" y="36.384" width="661.48" height="246.056"/>
  </clipPath>
 </defs>
</svg>
